<svg width="1000" height="1000" viewBox="0 0 1000 1000" fill="none" xmlns="http://www.w3.org/2000/svg">
<path d="M480.998 893.323C371.74 893.323 269.022 850.746 191.766 773.438C114.51 696.13 71.9629 593.337 71.9629 483.994C71.9629 374.652 114.51 271.871 191.766 194.556C269.022 117.241 371.741 74.6665 480.998 74.6665C590.256 74.6665 692.974 117.245 770.231 194.552C847.488 271.859 890.031 374.654 890.031 483.989C890.031 593.325 847.484 696.118 770.231 773.431C692.978 850.744 590.255 893.323 480.998 893.323Z" fill="#B2B2B2"/>
<path d="M481.093 892.65C397.11 892.516 314.373 866.603 245.806 817.949C177.483 769.466 124.494 700.16 96.4333 621.133C68.5311 541.886 65.4187 456.014 87.5104 374.953C109.654 294.177 157.27 221.531 221.766 168.248C286.685 114.741 366.574 82.6726 450.448 76.4526C534.279 70.319 619.136 90.1051 691.149 133.621C762.835 176.945 820.788 242.476 854.577 319.194C888.054 395.203 897.324 481.125 881.577 562.637C865.691 644.869 823.981 720.723 763.729 778.767C702.823 837.441 625.182 875.696 541.573 888.228C521.546 891.156 501.333 892.63 481.093 892.639C480.012 892.639 479.59 893.994 480.904 893.992C564.926 893.859 647.746 868.109 716.507 819.649C785.196 771.246 838.613 701.895 867.016 622.707C895.535 542.549 898.702 455.547 876.086 373.525C853.587 292.474 805.536 219.759 740.599 166.458C675.174 112.921 594.786 80.9722 510.483 75.0022C427.362 69.1883 343.354 88.6517 271.696 131.327C199.134 174.545 140.369 240.418 106.058 317.657C71.9094 394.514 62.5137 481.607 78.7237 564.094C94.9939 646.891 137.422 723.187 198.495 781.283C259.512 839.32 336.916 877.135 420.174 889.583C440.284 892.52 460.581 893.996 480.904 894C481.985 894.002 482.409 892.65 481.093 892.65Z" fill="black"/>
<path d="M480.997 826.162C413.371 826.162 347.264 806.095 291.035 768.497C234.806 730.899 190.981 677.46 165.102 614.937C139.222 552.414 132.451 483.615 145.644 417.241C158.838 350.867 191.403 289.899 239.222 242.046C303.378 178.036 390.297 142.122 480.892 142.19C571.487 142.258 658.352 178.303 722.412 242.409C786.472 306.515 822.491 393.442 822.559 484.102C822.626 574.762 786.738 661.742 722.774 725.945C691.097 757.817 653.417 783.086 611.916 800.288C570.415 817.49 525.917 826.285 480.997 826.162V826.162Z" fill="white"/>
<path d="M481.353 825.53C411.451 825.419 342.622 804.039 285.418 763.72C228.189 723.385 183.716 665.577 160.054 599.609C136.521 533.445 133.691 461.677 151.94 393.864C170.228 326.308 209.798 265.49 263.542 220.781C317.624 175.896 384.278 148.885 454.331 143.465C524.362 138.116 595.321 154.444 655.605 190.612C716.013 226.948 763.853 280.927 792.686 345.287C820.871 408.73 828.847 480.515 815.9 548.689C802.586 617.854 768.232 681.209 717.543 730.079C666.855 778.948 602.309 810.943 532.746 821.681C515.733 824.23 498.555 825.516 481.353 825.529C480.519 825.529 479.341 826.795 480.645 826.793C550.647 826.681 619.64 805.431 677.066 765.233C734.393 725.104 779.09 667.593 803.148 601.807C827.496 534.644 830.486 461.589 811.709 392.659C793.114 324.823 753.138 263.931 698.984 219.194C644.419 174.257 577.287 147.334 506.813 142.124C437.297 137.037 366.933 153.106 306.88 188.614C245.704 224.89 197.17 279.132 167.871 343.971C139.114 408.141 131.028 480.911 144.361 549.924C157.745 619.178 192.997 683.069 243.896 731.794C294.774 780.49 359.408 812.316 429.005 822.942C446.1 825.498 463.36 826.785 480.645 826.793C481.479 826.793 482.657 825.532 481.353 825.53Z" fill="black"/>
<path d="M480.997 759C417.419 758.999 355.809 736.937 306.663 696.574C257.518 656.211 223.878 600.044 211.475 537.642C199.073 475.241 208.675 410.467 238.646 354.357C268.618 298.247 317.103 254.272 375.842 229.925C434.58 205.578 499.938 202.365 560.778 220.834C621.618 239.304 674.176 278.312 709.498 331.213C744.82 384.115 760.719 447.635 754.487 510.952C748.255 574.269 720.278 633.465 675.321 678.453C649.862 704.071 619.578 724.38 586.222 738.206C552.866 752.032 517.101 759.1 480.997 759V759Z" fill="#B2B2B2"/>
<path d="M481.365 758.414C424.899 758.418 369.808 740.985 323.61 708.492C277.413 676 242.362 630.033 223.241 576.865C204.328 523.694 202.053 466.019 216.72 411.523C231.356 357.456 262.931 308.811 305.833 272.905C349.38 236.635 403.104 214.786 459.588 210.374C516.073 205.962 572.533 219.204 621.176 248.273C657.355 269.885 688.075 299.543 710.955 334.95C733.834 370.357 748.259 410.56 753.11 452.444C757.962 494.328 753.11 536.768 738.931 576.473C724.753 616.179 701.627 652.084 671.348 681.405C630.642 720.895 578.663 746.729 522.623 755.323C508.965 757.368 495.175 758.4 481.365 758.41C480.589 758.41 479.329 759.585 480.633 759.583C536.952 759.494 592.491 742.396 638.697 710.055C685.53 677.507 721.104 631.205 740.503 577.549C759.902 523.893 762.167 465.532 746.986 410.531C731.979 355.789 699.625 306.603 655.802 270.632C612.058 234.924 558.437 213.476 502.149 209.174C445.862 204.871 389.607 217.92 340.951 246.565C291.782 275.469 252.798 318.941 229.384 370.974C205.97 423.007 199.283 481.033 210.247 537.034C221.213 592.849 249.155 643.906 290.247 683.211C331.338 722.516 383.567 748.147 439.781 756.591C453.308 758.575 466.961 759.576 480.633 759.587C481.409 759.589 482.669 758.416 481.365 758.414Z" fill="black"/>
<path d="M681.11 424.535C670.026 387.213 648.713 353.747 619.589 327.93C590.465 302.113 554.695 284.979 516.335 278.471C496.381 275.111 476.048 274.634 455.958 277.054C417.642 281.795 381.399 297.104 351.277 321.27C321.155 345.436 298.341 377.508 285.384 413.902C272.427 450.295 269.837 489.578 277.905 527.36C285.972 565.141 304.378 599.934 331.067 627.851C357.756 655.767 391.676 675.708 429.037 685.444C466.398 695.18 505.728 694.329 542.634 682.985C579.539 671.642 612.566 650.252 638.023 621.207C663.481 592.162 680.367 556.605 686.794 518.509C692.025 487.157 690.082 455.026 681.11 424.535V424.535Z" fill="black"/>
<path d="M481.867 691.331C481.118 691.351 480.368 691.351 479.619 691.351C474.755 691.351 469.93 691.184 465.145 690.852C461.057 690.572 457.008 690.172 452.999 689.653C452.32 640.153 461.919 611.343 474.195 590.572C474.195 590.572 483.185 604.553 487.181 608.547C478.256 638.315 480.268 674.714 481.867 691.331Z" fill="white"/>
<path d="M481.966 690.701C472.4 690.853 462.837 690.291 453.355 689.02L453.974 689.56C453.591 673.107 454.739 656.654 457.404 640.414C459.397 628.471 462.779 616.802 467.482 605.644C469.706 600.489 472.254 595.478 475.11 590.644L473.312 590.977C475.686 594.665 478.146 598.296 480.693 601.873C482.241 604.131 483.923 606.295 485.73 608.353C485.816 608.448 486.143 608.695 486.177 608.829C486.253 609.129 485.839 609.917 485.752 610.227C485.429 611.359 485.123 612.495 484.832 613.636C484.299 615.733 483.814 617.84 483.378 619.959C479.933 636.663 479.137 653.886 479.62 670.9C479.816 677.808 480.242 684.704 480.898 691.588C480.972 692.36 482.909 691.914 482.828 691.071C480.847 670.388 480.677 649.271 483.746 628.688C484.737 621.848 486.212 615.086 488.159 608.454C488.169 608.399 488.166 608.343 488.152 608.29C488.138 608.236 488.112 608.186 488.076 608.144C485.007 605.038 482.548 601.241 480.085 597.659C478.385 595.186 476.72 592.69 475.09 590.169C474.726 589.602 473.557 590.049 473.292 590.503C467.981 599.546 463.724 609.168 460.607 619.181C456.606 632.392 454.061 646 453.015 659.764C452.163 669.733 451.905 679.745 452.036 689.748C452.036 690.117 452.325 690.248 452.655 690.287C462.3 691.567 472.027 692.126 481.755 691.96C482.795 691.938 483.289 690.673 481.966 690.701Z" fill="black"/>
<path d="M550.044 521.506C527.125 527.206 475.199 558.617 455.221 606.55C477.196 603.554 487.185 608.547 487.185 608.547C499.172 577.591 516.153 542.64 550.044 521.506Z" fill="url(#paint0_linear)"/>
<path d="M549.924 521.057C544.21 522.591 538.666 524.701 533.379 527.355C526.299 530.796 519.473 534.737 512.954 539.148C497.129 549.637 483.096 562.603 471.393 577.55C464.441 586.475 458.681 596.268 454.259 606.68C454.09 607.079 454.925 607.073 455.08 607.052C461.759 606.062 468.531 605.859 475.257 606.448C478.566 606.722 481.83 607.386 484.983 608.424C485.471 608.586 485.949 608.777 486.414 608.998C486.727 609.105 487.066 609.106 487.379 609.001C487.693 608.896 487.963 608.691 488.148 608.417C492.894 595.775 498.539 583.488 505.04 571.652C511.914 559.135 520.527 547.654 530.623 537.552C536.708 531.586 543.417 526.293 550.636 521.764C551.734 521.075 550.044 520.879 549.454 521.249C536.847 529.239 525.753 539.395 516.684 551.248C508.14 562.546 500.889 574.766 495.067 587.68C491.871 594.57 488.968 601.595 486.223 608.677L487.959 608.098C486.408 607.399 484.783 606.877 483.115 606.541C478.292 605.47 473.359 604.978 468.42 605.076C464.052 605.123 459.691 605.448 455.364 606.049L456.185 606.42C463.821 588.183 476.068 572.144 490.39 558.628C502.729 546.899 516.684 536.995 531.831 529.22C537.653 526.124 543.802 523.687 550.165 521.956C551.32 521.666 551.089 520.766 549.924 521.057Z" fill="black"/>
<path d="M546.732 522.458C546.809 522.637 546.937 522.79 547.101 522.896C547.265 523.002 547.457 523.056 547.652 523.051C548.045 522.792 548.443 522.539 548.84 522.283C548.874 522.132 548.888 521.978 548.882 521.824C548.188 522.013 547.472 522.225 546.732 522.458Z" fill="black"/>
<path d="M539.059 525.62C539.044 525.528 539.021 525.438 538.99 525.351C538.108 525.727 537.209 526.123 536.293 526.539C536.566 526.765 536.907 526.894 537.261 526.905C537.666 526.948 538.073 526.84 538.404 526.604C538.735 526.367 538.968 526.017 539.059 525.62V525.62Z" fill="black"/>
<path d="M524.903 536.117C524.915 536.307 524.966 536.493 525.052 536.664C525.138 536.834 525.258 536.985 525.404 537.108C525.55 537.231 525.719 537.323 525.902 537.379C526.085 537.434 526.277 537.453 526.466 537.432C526.767 537.478 527.073 537.403 527.319 537.225C527.565 537.047 527.731 536.78 527.782 536.48C527.811 536.101 527.689 535.724 527.442 535.435C527.194 535.145 526.842 534.964 526.462 534.934C526.279 534.876 526.085 534.863 525.896 534.896C525.707 534.928 525.529 535.006 525.376 535.122C525.223 535.238 525.101 535.389 525.018 535.562C524.936 535.735 524.897 535.925 524.903 536.117V536.117Z" fill="black"/>
<path d="M514.305 547.079C514.362 547.837 514.968 548.027 515.619 548.032C516.486 548.038 517.228 547.708 517.011 546.734C516.878 546.135 516.159 545.919 515.487 545.987C514.867 546.108 514.246 546.296 514.305 547.079Z" fill="black"/>
<path d="M508.39 545.723C508.24 545.731 508.093 545.771 507.959 545.84C507.825 545.909 507.707 546.006 507.613 546.123C507.519 546.241 507.451 546.376 507.412 546.522C507.374 546.667 507.367 546.819 507.391 546.968C507.437 547.708 508.021 547.886 508.665 547.899C508.815 547.895 508.962 547.859 509.096 547.794C509.23 547.728 509.349 547.634 509.443 547.519C509.538 547.404 509.607 547.269 509.645 547.125C509.683 546.98 509.69 546.829 509.664 546.682C509.651 546.533 509.606 546.387 509.533 546.256C509.46 546.124 509.361 546.01 509.24 545.919C509.12 545.829 508.982 545.765 508.836 545.731C508.689 545.697 508.537 545.694 508.39 545.723V545.723Z" fill="black"/>
<path d="M502.27 548.284C502.38 548.226 502.476 548.144 502.552 548.046C502.628 547.947 502.681 547.833 502.709 547.712C502.745 547.563 502.754 547.409 502.734 547.257C502.306 547.592 501.878 547.915 501.451 548.256C501.469 548.264 501.481 548.277 501.5 548.285L502.27 548.284Z" fill="black"/>
<path d="M522.383 538.806C522.233 538.832 522.091 538.891 521.967 538.979C521.844 539.068 521.742 539.184 521.67 539.317C521.598 539.451 521.558 539.6 521.552 539.751C521.546 539.903 521.574 540.054 521.636 540.193C521.709 540.49 521.885 540.751 522.133 540.929C522.381 541.108 522.684 541.193 522.989 541.169C523.729 541.169 524.015 540.677 524.047 539.985C523.714 539.281 523.309 538.603 522.383 538.806Z" fill="black"/>
<path d="M523.984 532.905C523.67 533.086 523.356 533.268 523.041 533.453C523.153 533.452 523.265 533.442 523.375 533.421C523.511 533.392 523.638 533.33 523.744 533.24C523.851 533.15 523.933 533.035 523.984 532.905V532.905Z" fill="black"/>
<path d="M516.412 539.497C516.276 539.25 516.19 538.851 515.989 538.781C515.885 538.74 515.773 538.724 515.663 538.736C515.552 538.747 515.445 538.785 515.353 538.847C515.26 538.909 515.184 538.992 515.13 539.09C515.077 539.188 515.048 539.297 515.047 539.408C515.05 539.549 515.088 539.687 515.157 539.809C515.227 539.931 515.327 540.034 515.446 540.108C515.928 540.273 516.273 539.996 516.412 539.497Z" fill="black"/>
<path d="M512.301 542.285C511.572 542.39 511.102 542.811 511.253 543.514C511.316 543.727 511.427 543.923 511.577 544.086C511.727 544.25 511.912 544.377 512.119 544.458C512.269 544.499 512.427 544.505 512.58 544.475C512.733 544.444 512.877 544.379 513 544.284C513.124 544.189 513.223 544.067 513.292 543.926C513.36 543.786 513.395 543.632 513.393 543.476C513.473 542.754 512.972 542.387 512.301 542.285Z" fill="black"/>
<path d="M519.064 537.399C519.213 537.408 519.362 537.388 519.503 537.338C519.644 537.289 519.773 537.213 519.884 537.113C519.995 537.014 520.085 536.893 520.149 536.759C520.213 536.624 520.249 536.478 520.256 536.33C520.199 535.979 520.022 535.658 519.757 535.422C519.163 535.786 518.571 536.152 517.975 536.528C518.018 536.782 518.153 537.01 518.354 537.171C518.555 537.331 518.808 537.413 519.064 537.399Z" fill="black"/>
<path d="M517.934 543.423C517.948 543.719 518.076 543.999 518.292 544.203C518.507 544.407 518.793 544.52 519.089 544.518C519.386 544.517 519.671 544.4 519.884 544.194C520.096 543.987 520.221 543.706 520.232 543.41C520.25 542.726 519.715 542.404 519.076 542.292C518.425 542.394 517.91 542.756 517.934 543.423Z" fill="black"/>
<path d="M539.744 528.751C539.98 528.565 540.212 528.377 540.45 528.194C540.292 528.212 540.142 528.273 540.018 528.371C539.893 528.47 539.798 528.601 539.744 528.751V528.751Z" fill="black"/>
<path d="M543.069 525.382C543.035 525.638 543.085 525.899 543.212 526.124C543.811 525.688 544.424 525.257 545.036 524.826C544.864 524.613 544.621 524.469 544.352 524.419C543.686 524.428 543.153 524.695 543.069 525.382Z" fill="black"/>
<path d="M532.49 529.031C532.435 529.173 532.416 529.326 532.435 529.478C532.454 529.629 532.512 529.773 532.601 529.896C532.691 530.019 532.81 530.118 532.947 530.183C533.085 530.248 533.237 530.278 533.389 530.269C533.693 530.259 533.983 530.14 534.207 529.934C534.43 529.728 534.572 529.449 534.608 529.147C534.618 528.921 534.547 528.699 534.409 528.519C534.271 528.34 534.074 528.215 533.853 528.167C533.706 528.125 533.552 528.114 533.401 528.135C533.25 528.157 533.105 528.21 532.976 528.292C532.848 528.373 532.738 528.482 532.654 528.609C532.57 528.737 532.514 528.88 532.49 529.031Z" fill="black"/>
<path d="M529.262 531.855C529.193 531.996 529.155 532.151 529.151 532.309C529.147 532.466 529.177 532.623 529.238 532.767C529.3 532.912 529.392 533.042 529.509 533.148C529.625 533.255 529.763 533.334 529.913 533.383C530.647 533.653 531.074 533.193 531.307 532.526C531.341 532.372 531.342 532.214 531.31 532.06C531.278 531.906 531.213 531.761 531.121 531.634C531.029 531.506 530.911 531.4 530.775 531.322C530.638 531.244 530.487 531.195 530.331 531.18C530.1 531.137 529.862 531.183 529.664 531.308C529.466 531.433 529.322 531.628 529.262 531.855V531.855Z" fill="black"/>
<path d="M495.181 575.487C495.38 574.704 494.719 574.533 494.322 574.449C493.603 574.444 493.265 574.757 493.182 575.21C493.034 576.026 493.669 576.283 494.264 576.248C494.467 576.205 494.657 576.114 494.817 575.981C494.977 575.849 495.102 575.679 495.181 575.487V575.487Z" fill="black"/>
<path d="M469.163 594.018C469.278 594.039 469.396 594.037 469.511 594.013C469.626 593.988 469.734 593.941 469.83 593.873C469.926 593.806 470.008 593.721 470.071 593.622C470.134 593.523 470.176 593.412 470.196 593.297C470.374 592.566 469.969 592.116 469.286 591.899C469.173 591.872 469.056 591.869 468.942 591.889C468.828 591.909 468.719 591.952 468.622 592.016C468.525 592.08 468.442 592.162 468.379 592.259C468.315 592.356 468.272 592.465 468.252 592.579C468.213 592.733 468.206 592.894 468.232 593.051C468.257 593.208 468.314 593.359 468.399 593.493C468.485 593.628 468.596 593.743 468.727 593.834C468.858 593.924 469.007 593.986 469.163 594.018V594.018Z" fill="black"/>
<path d="M469.506 599.333C469.112 599.349 468.486 599.606 468.39 599.895C468.158 600.604 468.653 601.073 469.354 601.117C469.853 601.149 470.169 600.766 470.293 600.274C470.295 599.736 470.008 599.313 469.506 599.333Z" fill="black"/>
<path d="M474.104 575.346C474.104 575.322 474.098 575.303 474.097 575.28C473.826 575.618 473.556 575.957 473.287 576.297C473.521 576.278 473.739 576.168 473.892 575.99C474.045 575.811 474.121 575.58 474.104 575.346Z" fill="black"/>
<path d="M469.732 585.069C469.598 584.989 469.446 584.945 469.291 584.941C469.135 584.937 468.981 584.973 468.843 585.045C468.705 585.118 468.588 585.225 468.504 585.356C468.42 585.487 468.371 585.638 468.362 585.793C468.257 586.302 468.619 586.642 469.295 586.816C469.558 586.65 470.072 586.503 470.253 586.174C470.298 586.068 470.32 585.953 470.318 585.838C470.316 585.723 470.289 585.609 470.24 585.505C470.191 585.401 470.12 585.308 470.033 585.233C469.945 585.158 469.843 585.102 469.732 585.069V585.069Z" fill="black"/>
<path d="M464.398 596.424C464.37 596.572 464.373 596.724 464.406 596.87C464.439 597.017 464.502 597.155 464.591 597.276C464.68 597.397 464.793 597.498 464.923 597.574C465.053 597.649 465.197 597.697 465.346 597.714C466.002 597.687 466.545 597.436 466.645 596.745C466.684 596.6 466.688 596.447 466.659 596.3C466.63 596.152 466.567 596.013 466.476 595.894C466.384 595.774 466.267 595.677 466.132 595.61C465.998 595.543 465.85 595.507 465.699 595.506C465.553 595.472 465.4 595.469 465.253 595.498C465.105 595.527 464.965 595.587 464.843 595.673C464.72 595.76 464.617 595.872 464.54 596.001C464.464 596.131 464.415 596.275 464.398 596.424V596.424Z" fill="black"/>
<path d="M476.361 577.742C476.173 577.818 476.006 577.939 475.876 578.094C475.745 578.249 475.654 578.433 475.611 578.631C475.553 579.224 475.811 579.837 476.594 579.736C476.816 579.698 477.018 579.583 477.163 579.411C477.308 579.238 477.386 579.02 477.384 578.795C477.271 578.242 477.153 577.565 476.361 577.742Z" fill="black"/>
<path d="M480.161 569.288C481.042 569.435 481.201 568.745 481.25 568.114C481.261 567.966 481.236 567.817 481.177 567.681C481.118 567.545 481.027 567.425 480.911 567.331C480.454 567.83 480.002 568.339 479.549 568.845C479.609 568.962 479.696 569.062 479.802 569.139C479.909 569.216 480.032 569.267 480.161 569.288V569.288Z" fill="black"/>
<path d="M479.527 574.499C479.092 574.648 478.691 574.933 478.844 575.479C478.868 575.625 478.925 575.764 479.011 575.884C479.097 576.005 479.21 576.104 479.341 576.175C479.471 576.245 479.616 576.285 479.764 576.29C479.912 576.296 480.06 576.268 480.195 576.208C480.624 576.069 480.994 575.79 480.887 575.228C480.644 574.597 480.21 574.263 479.527 574.499Z" fill="black"/>
<path d="M480.052 604.596C480.751 604.795 481.082 604.242 481.223 603.606C481.082 602.986 480.801 602.399 480.076 602.597C479.879 602.678 479.71 602.815 479.59 602.991C479.47 603.168 479.405 603.375 479.402 603.588C479.4 603.801 479.46 604.01 479.576 604.189C479.691 604.368 479.857 604.509 480.052 604.595V604.596Z" fill="black"/>
<path d="M483.263 579.831C483.567 579.858 483.871 579.774 484.118 579.596C484.365 579.417 484.539 579.155 484.608 578.858C484.635 578.557 484.543 578.257 484.351 578.024C484.158 577.791 483.882 577.643 483.581 577.613C483.434 577.576 483.28 577.573 483.132 577.604C482.983 577.635 482.843 577.699 482.723 577.791C482.602 577.883 482.504 578.001 482.434 578.136C482.365 578.271 482.327 578.42 482.323 578.571C482.271 579.218 482.507 579.806 483.263 579.831Z" fill="black"/>
<path d="M480.169 588.285C479.981 588.364 479.815 588.486 479.685 588.643C479.555 588.8 479.465 588.985 479.422 589.184C479.366 589.769 479.583 590.412 480.396 590.294C480.62 590.256 480.823 590.14 480.97 589.966C481.116 589.793 481.196 589.573 481.195 589.346C481.092 588.782 480.954 588.117 480.169 588.285Z" fill="black"/>
<path d="M480.152 597.587C480.498 597.544 480.793 597.076 481.034 596.869C481.034 596.226 480.814 595.862 480.348 595.721C479.78 595.549 479.489 595.953 479.388 596.397C479.25 597.002 479.27 597.692 480.152 597.587Z" fill="black"/>
<path d="M479.939 581.467C479.662 581.538 479.354 582.166 479.361 582.528C479.344 582.675 479.365 582.823 479.422 582.96C479.479 583.097 479.569 583.217 479.685 583.309C479.801 583.401 479.939 583.461 480.085 583.486C480.231 583.51 480.38 583.496 480.52 583.446C480.831 583.346 480.998 582.8 481.165 582.554C481.039 581.699 480.568 581.304 479.939 581.467Z" fill="black"/>
<path d="M472.74 595.74C472.63 595.737 472.52 595.757 472.417 595.799C472.315 595.841 472.223 595.905 472.147 595.986C472.072 596.066 472.014 596.162 471.979 596.267C471.943 596.372 471.93 596.483 471.941 596.593C471.95 596.739 471.987 596.883 472.052 597.015C472.116 597.147 472.206 597.264 472.317 597.361C472.427 597.458 472.555 597.532 472.694 597.579C472.833 597.626 472.98 597.645 473.127 597.635C473.301 597.624 473.544 597.216 473.589 596.96C473.705 596.313 473.491 595.752 472.74 595.74Z" fill="black"/>
<path d="M474.066 582.123C474.035 581.585 473.752 581.168 473.221 581.224C472.815 581.269 472.199 581.524 472.104 581.824C471.859 582.589 472.44 582.955 473.13 582.968C473.364 582.971 473.59 582.886 473.764 582.729C473.937 582.573 474.045 582.356 474.066 582.123Z" fill="black"/>
<path d="M477.691 571.198C477.686 571.134 477.668 571.072 477.638 571.016C477.238 571.479 476.845 571.95 476.449 572.414C477.116 572.328 477.671 572.016 477.691 571.198Z" fill="black"/>
<path d="M472.667 602.619C472.458 602.62 472.256 602.699 472.102 602.84C471.947 602.98 471.849 603.173 471.828 603.382C471.828 604.062 472.078 604.45 472.555 604.61C473.155 604.81 473.448 604.388 473.559 603.911C473.726 603.199 473.474 602.628 472.667 602.619Z" fill="black"/>
<path d="M472.848 588.517C472.653 588.582 472.475 588.69 472.328 588.833C472.18 588.975 472.067 589.15 471.997 589.342C471.954 589.482 471.952 589.631 471.989 589.773C472.027 589.914 472.103 590.042 472.209 590.143C472.315 590.244 472.447 590.313 472.59 590.343C472.733 590.373 472.882 590.363 473.019 590.314C473.319 590.238 473.497 589.679 473.649 589.457C473.611 588.772 473.351 588.368 472.848 588.517Z" fill="black"/>
<path d="M475.346 585.76C475.032 586.52 475.588 586.836 476.263 586.85C476.489 586.846 476.706 586.762 476.876 586.613C477.045 586.464 477.156 586.259 477.188 586.035C477.176 585.52 476.914 585.095 476.413 585.142C476.2 585.161 475.995 585.226 475.81 585.333C475.626 585.44 475.467 585.586 475.346 585.76V585.76Z" fill="black"/>
<path d="M476.245 592.012C475.7 592.355 475.377 592.811 475.668 593.465C475.855 593.886 476.221 594.244 476.691 594.046C476.833 594.003 476.963 593.929 477.073 593.83C477.183 593.73 477.269 593.608 477.326 593.471C477.382 593.334 477.408 593.186 477.4 593.038C477.393 592.89 477.352 592.746 477.282 592.616C477.213 592.406 477.069 592.228 476.878 592.117C476.687 592.006 476.462 591.969 476.245 592.012V592.012Z" fill="black"/>
<path d="M476.006 601.636C476.355 601.573 476.677 601.404 476.927 601.151C477.178 600.899 477.344 600.576 477.404 600.226C477.541 599.763 477.549 599.107 477.043 599.028C475.95 598.844 475.335 599.605 475.061 600.546C474.93 601.001 475.309 601.378 476.006 601.636Z" fill="black"/>
<path d="M457.501 603.47C457.494 604.155 457.792 604.746 458.528 604.739C459.212 604.733 459.588 604.207 459.668 603.516C459.648 603.363 459.598 603.215 459.521 603.081C459.443 602.948 459.339 602.831 459.216 602.738C459.093 602.645 458.952 602.577 458.802 602.54C458.652 602.502 458.496 602.494 458.343 602.518C458.106 602.535 457.886 602.645 457.728 602.823C457.571 603.001 457.489 603.233 457.501 603.47V603.47Z" fill="black"/>
<path d="M461.842 594.21C462.484 594.198 463.004 593.96 463.055 593.23C463.095 593.001 463.062 592.766 462.96 592.557C462.858 592.349 462.693 592.178 462.488 592.069C462.111 592.712 461.731 593.353 461.365 594.004C461.513 594.095 461.674 594.165 461.842 594.21Z" fill="black"/>
<path d="M462.501 600.758C462.701 600.632 462.744 600.253 462.841 600.028C462.63 599.499 462.221 599.335 461.784 599.584C461.672 599.674 461.584 599.79 461.529 599.923C461.475 600.055 461.454 600.199 461.47 600.342C461.491 600.45 461.539 600.552 461.609 600.637C461.679 600.723 461.77 600.789 461.872 600.83C461.975 600.872 462.086 600.887 462.196 600.874C462.306 600.862 462.41 600.822 462.501 600.758V600.758Z" fill="black"/>
<path d="M483.764 601.117C483.877 601.123 483.991 601.105 484.097 601.064C484.204 601.024 484.3 600.961 484.38 600.881C484.461 600.8 484.523 600.704 484.564 600.597C484.605 600.491 484.622 600.377 484.616 600.264C484.642 599.482 484.077 599.287 483.428 599.327C483.316 599.327 483.206 599.349 483.103 599.392C482.999 599.435 482.906 599.498 482.828 599.578C482.75 599.658 482.688 599.753 482.648 599.857C482.607 599.961 482.587 600.072 482.59 600.184C482.581 600.946 483.121 601.141 483.764 601.117Z" fill="black"/>
<path d="M512.315 549.168C512.01 549.161 511.714 549.271 511.488 549.475C511.262 549.679 511.122 549.962 511.098 550.266C511.078 550.416 511.095 550.568 511.147 550.709C511.199 550.851 511.286 550.977 511.398 551.077C511.511 551.178 511.647 551.249 511.793 551.284C511.94 551.32 512.093 551.319 512.239 551.282C512.538 551.236 512.808 551.078 512.993 550.839C513.179 550.601 513.267 550.3 513.238 550C513.111 549.514 512.826 549.143 512.315 549.168Z" fill="black"/>
<path d="M509.635 553.415C509.62 553.299 509.58 553.188 509.519 553.089C509.458 552.989 509.376 552.904 509.28 552.838C509.183 552.772 509.074 552.727 508.959 552.706C508.845 552.685 508.727 552.688 508.613 552.716C508.456 552.732 508.304 552.782 508.169 552.863C508.033 552.943 507.917 553.053 507.828 553.183C507.739 553.314 507.679 553.462 507.653 553.618C507.627 553.773 507.636 553.933 507.678 554.085C507.728 554.313 507.86 554.515 508.049 554.653C508.238 554.791 508.47 554.856 508.703 554.834C508.858 554.802 509.004 554.74 509.135 554.652C509.265 554.563 509.377 554.45 509.464 554.318C509.55 554.186 509.61 554.038 509.639 553.883C509.669 553.728 509.667 553.569 509.635 553.415V553.415Z" fill="black"/>
<path d="M512.133 556.466C511.983 556.444 511.831 556.46 511.689 556.511C511.547 556.563 511.42 556.649 511.32 556.762C511.22 556.875 511.149 557.011 511.114 557.158C511.08 557.305 511.082 557.458 511.121 557.604C511.159 557.875 511.295 558.123 511.502 558.302C511.71 558.481 511.976 558.578 512.25 558.576C512.549 558.139 512.856 557.708 513.16 557.277C513.091 557.054 512.956 556.857 512.772 556.712C512.589 556.567 512.366 556.481 512.133 556.466V556.466Z" fill="black"/>
<path d="M504.601 563.526C504.451 563.54 504.307 563.586 504.176 563.66C504.045 563.734 503.932 563.834 503.842 563.955C503.752 564.075 503.689 564.213 503.656 564.359C503.622 564.506 503.62 564.657 503.649 564.805C503.709 565.538 504.285 565.764 504.93 565.704C505.636 565.637 505.912 565.15 505.897 564.475C505.849 564.179 505.686 563.913 505.443 563.735C505.201 563.558 504.898 563.482 504.601 563.526Z" fill="black"/>
<path d="M504.785 556.506C504.639 556.528 504.499 556.578 504.372 556.654C504.246 556.73 504.135 556.83 504.047 556.948C503.96 557.066 503.896 557.201 503.86 557.344C503.824 557.487 503.817 557.635 503.838 557.781C503.86 557.927 503.91 558.067 503.986 558.194C504.061 558.32 504.161 558.43 504.28 558.518C504.519 558.696 504.819 558.771 505.113 558.727C505.83 558.662 506.054 558.112 506.035 557.45C506.027 557.301 505.986 557.156 505.916 557.025C505.846 556.893 505.748 556.778 505.629 556.689C505.51 556.599 505.373 556.536 505.227 556.505C505.081 556.473 504.93 556.474 504.785 556.506V556.506Z" fill="black"/>
<path d="M504.784 551.41C505.083 551.419 505.374 551.308 505.592 551.102C505.81 550.896 505.938 550.612 505.946 550.312C505.911 550.013 505.772 549.736 505.553 549.53C505.333 549.324 505.048 549.202 504.748 549.187C504.598 549.188 504.449 549.218 504.311 549.277C504.173 549.336 504.049 549.422 503.944 549.53C503.84 549.637 503.758 549.765 503.703 549.904C503.649 550.044 503.622 550.193 503.626 550.343C503.62 550.492 503.647 550.642 503.704 550.78C503.761 550.918 503.848 551.042 503.958 551.144C504.068 551.245 504.199 551.322 504.342 551.368C504.484 551.414 504.635 551.428 504.784 551.41Z" fill="black"/>
<path d="M514.395 553.519C514.305 553.764 514.306 554.033 514.398 554.278C514.489 554.522 514.665 554.725 514.894 554.851C515.394 554.159 515.9 553.468 516.415 552.784C516.226 552.681 516.025 552.601 515.816 552.546C515.499 552.493 515.174 552.565 514.909 552.746C514.644 552.928 514.46 553.205 514.395 553.519Z" fill="black"/>
<path d="M518.588 549.967C518.758 549.752 518.935 549.54 519.107 549.326C518.967 549.37 518.843 549.454 518.75 549.568C518.658 549.682 518.602 549.821 518.588 549.967V549.967Z" fill="black"/>
<path d="M508.655 560.066C507.82 560.254 507.601 560.642 507.802 561.153C507.88 561.379 508.041 561.566 508.254 561.676C508.466 561.786 508.712 561.81 508.942 561.743C509.058 561.725 509.169 561.681 509.266 561.615C509.363 561.548 509.443 561.46 509.501 561.357C509.558 561.255 509.592 561.141 509.599 561.023C509.606 560.906 509.586 560.788 509.541 560.68C509.473 560.5 509.352 560.344 509.194 560.235C509.035 560.125 508.848 560.067 508.655 560.066V560.066Z" fill="black"/>
<path d="M490.729 558.757C490.935 558.722 491.128 558.632 491.289 558.497C491.449 558.363 491.57 558.188 491.64 557.991C491.71 557.794 491.727 557.582 491.688 557.376C491.649 557.171 491.556 556.979 491.419 556.822C490.868 557.327 490.325 557.849 489.777 558.365C490.043 558.596 490.377 558.734 490.729 558.757Z" fill="black"/>
<path d="M491.68 571.487C491.515 571.067 491.194 570.681 490.682 570.871C490.539 570.912 490.407 570.983 490.295 571.08C490.183 571.177 490.094 571.297 490.033 571.432C489.972 571.567 489.942 571.714 489.943 571.862C489.945 572.01 489.979 572.156 490.043 572.289C490.065 572.398 490.108 572.501 490.17 572.593C490.233 572.684 490.313 572.762 490.406 572.822C490.5 572.881 490.604 572.922 490.713 572.94C490.823 572.958 490.934 572.954 491.042 572.928C491.181 572.879 491.308 572.802 491.417 572.701C491.525 572.601 491.611 572.48 491.671 572.345C491.731 572.21 491.762 572.065 491.764 571.917C491.765 571.77 491.737 571.624 491.68 571.487V571.487Z" fill="black"/>
<path d="M487.205 581.198C486.469 581.404 486.106 581.897 486.438 582.596C486.613 582.967 487.097 583.435 487.437 583.432C487.595 583.428 487.75 583.391 487.893 583.324C488.035 583.256 488.162 583.159 488.265 583.04C488.368 582.92 488.445 582.78 488.49 582.629C488.535 582.478 488.549 582.319 488.529 582.162C488.494 581.382 487.912 581.153 487.205 581.198Z" fill="black"/>
<path d="M495.272 561.132C495.382 560.575 495.03 560.296 494.598 560.146C494.167 559.996 493.62 560.019 493.472 560.516C493.423 560.656 493.407 560.805 493.425 560.952C493.443 561.098 493.493 561.239 493.573 561.364C493.653 561.488 493.761 561.592 493.887 561.669C494.013 561.746 494.155 561.793 494.303 561.807C494.519 561.837 494.74 561.784 494.919 561.659C495.099 561.534 495.225 561.345 495.272 561.132V561.132Z" fill="black"/>
<path d="M494.208 567.072C493.971 567.101 493.752 567.214 493.591 567.39C493.43 567.566 493.338 567.795 493.331 568.033C493.309 568.188 493.321 568.346 493.364 568.496C493.408 568.646 493.482 568.786 493.583 568.905C493.684 569.025 493.81 569.122 493.951 569.189C494.092 569.257 494.245 569.294 494.402 569.298C495.126 569.33 495.448 568.764 495.483 568.033C495.478 567.88 495.439 567.73 495.369 567.594C495.299 567.457 495.199 567.339 495.076 567.246C494.954 567.154 494.812 567.09 494.662 567.06C494.512 567.03 494.357 567.034 494.208 567.072V567.072Z" fill="black"/>
<path d="M494.514 582.907C494.976 582.789 495.424 582.434 495.178 581.909C495.016 581.56 494.554 581.352 494.369 581.2C493.618 581.222 493.252 581.541 493.252 582.038C493.254 582.843 493.816 583.085 494.514 582.907Z" fill="black"/>
<path d="M495.457 553.623C495.429 553.521 495.392 553.421 495.348 553.324C494.815 553.79 494.283 554.258 493.75 554.73C493.972 554.898 494.248 554.979 494.526 554.958C495.284 554.909 495.506 554.32 495.457 553.623Z" fill="black"/>
<path d="M483.131 594.105C483.841 594.354 484.306 593.933 484.545 593.256C484.573 593.103 484.569 592.945 484.534 592.794C484.499 592.642 484.433 592.499 484.341 592.374C484.248 592.249 484.131 592.144 483.996 592.066C483.861 591.988 483.711 591.939 483.557 591.921C483.326 591.884 483.09 591.932 482.891 592.055C482.693 592.178 482.545 592.369 482.476 592.592C482.404 592.732 482.363 592.887 482.358 593.044C482.353 593.202 482.382 593.359 482.445 593.503C482.508 593.648 482.602 593.777 482.721 593.881C482.839 593.985 482.979 594.061 483.131 594.105Z" fill="black"/>
<path d="M483.763 570.621C483.023 570.664 482.493 571.02 482.538 571.737C482.538 571.893 482.571 572.047 482.634 572.19C482.698 572.332 482.79 572.46 482.906 572.564C483.022 572.669 483.158 572.748 483.306 572.796C483.455 572.845 483.611 572.862 483.766 572.846C484.006 572.829 484.231 572.727 484.402 572.559C484.573 572.391 484.679 572.168 484.7 571.929C484.736 571.78 484.74 571.626 484.71 571.476C484.681 571.326 484.62 571.185 484.531 571.061C484.442 570.936 484.328 570.833 484.195 570.757C484.063 570.681 483.915 570.635 483.763 570.621V570.621Z" fill="black"/>
<path d="M483.279 606.266C483.066 606.266 482.86 606.341 482.696 606.477C482.533 606.614 482.423 606.803 482.385 607.012C483.204 607.203 483.915 607.396 484.52 607.578C484.55 607.466 484.571 607.353 484.58 607.238C484.527 606.941 484.363 606.676 484.121 606.496C483.879 606.316 483.578 606.234 483.279 606.266V606.266Z" fill="black"/>
<path d="M484.609 585.68C484.571 585.531 484.502 585.392 484.407 585.272C484.312 585.151 484.192 585.052 484.055 584.981C483.002 585.003 482.694 585.347 482.673 585.853C482.658 585.971 482.668 586.09 482.703 586.203C482.739 586.316 482.798 586.42 482.877 586.508C482.956 586.596 483.054 586.665 483.162 586.712C483.271 586.759 483.389 586.782 483.507 586.779C484.195 586.786 484.77 586.493 484.609 585.68Z" fill="black"/>
<path d="M483.827 565.783C483.98 565.792 484.133 565.763 484.272 565.699C484.412 565.635 484.533 565.538 484.627 565.416C484.72 565.294 484.783 565.152 484.808 565C484.834 564.849 484.822 564.694 484.775 564.548C484.723 564.229 484.556 563.94 484.305 563.736C483.785 564.272 483.271 564.82 482.756 565.364C482.897 565.502 483.064 565.611 483.248 565.683C483.432 565.755 483.629 565.789 483.827 565.783V565.783Z" fill="black"/>
<path d="M501.682 561.665C501.794 561.587 501.886 561.483 501.95 561.363C502.014 561.242 502.048 561.108 502.05 560.972C501.988 560.528 501.708 560.189 501.451 560.237C500.679 560.464 500.458 560.879 500.621 561.293C500.659 561.394 500.718 561.484 500.795 561.559C500.872 561.634 500.964 561.691 501.065 561.726C501.166 561.762 501.274 561.774 501.381 561.764C501.487 561.753 501.59 561.72 501.682 561.665V561.665Z" fill="black"/>
<path d="M500.725 575.13C500.711 575.274 500.732 575.42 500.788 575.553C500.843 575.687 500.931 575.805 501.044 575.896C501.162 575.987 501.309 576.032 501.458 576.021C501.606 576.011 501.746 575.946 501.85 575.84C501.925 575.7 502.003 575.561 502.078 575.421C502 575.165 501.958 574.849 501.784 574.738C501.693 574.674 501.588 574.634 501.478 574.62C501.368 574.606 501.256 574.619 501.152 574.658C501.048 574.696 500.955 574.759 500.881 574.842C500.806 574.924 500.753 575.023 500.725 575.13V575.13Z" fill="black"/>
<path d="M501.621 569.133C501.94 569.053 502.128 568.457 502.293 568.218C502.214 567.484 501.907 567.141 501.369 567.149C501.251 567.144 501.132 567.163 501.022 567.207C500.911 567.25 500.811 567.317 500.728 567.402C500.645 567.487 500.581 567.588 500.54 567.699C500.499 567.811 500.482 567.93 500.49 568.048C500.495 568.757 500.853 569.332 501.621 569.133Z" fill="black"/>
<path d="M501.597 552.848C501.145 552.649 500.755 552.993 500.569 553.414C500.502 553.544 500.464 553.688 500.458 553.835C500.452 553.983 500.479 554.129 500.536 554.265C500.593 554.4 500.679 554.522 500.789 554.621C500.898 554.719 501.028 554.793 501.169 554.836C501.643 555.035 501.968 554.671 502.201 554.273C502.266 554.142 502.302 553.997 502.307 553.851C502.311 553.704 502.283 553.558 502.226 553.422C502.169 553.287 502.083 553.166 501.974 553.067C501.866 552.968 501.737 552.893 501.597 552.848V552.848Z" fill="black"/>
<path d="M496.9 564.86C496.993 565.354 497.412 565.591 497.998 565.559C498.148 565.527 498.29 565.466 498.415 565.379C498.541 565.292 498.647 565.18 498.729 565.051C498.81 564.922 498.865 564.778 498.889 564.627C498.914 564.476 498.908 564.322 498.871 564.174C498.851 564.058 498.808 563.948 498.745 563.85C498.682 563.751 498.6 563.666 498.503 563.6C498.407 563.534 498.298 563.487 498.183 563.464C498.069 563.44 497.95 563.44 497.835 563.463C497.677 563.482 497.524 563.535 497.388 563.619C497.252 563.702 497.136 563.814 497.047 563.947C496.958 564.079 496.899 564.229 496.874 564.387C496.848 564.545 496.857 564.706 496.9 564.86V564.86Z" fill="black"/>
<path d="M496.76 578.933C496.765 579.172 496.862 579.4 497.03 579.57C497.198 579.739 497.425 579.838 497.664 579.846C497.819 579.861 497.976 579.845 498.124 579.797C498.273 579.749 498.41 579.671 498.527 579.568C498.644 579.465 498.738 579.339 498.804 579.198C498.87 579.056 498.907 578.903 498.911 578.747C498.918 578.071 498.38 577.679 497.684 577.592C497.529 577.606 497.379 577.654 497.245 577.732C497.111 577.811 496.996 577.918 496.908 578.046C496.82 578.174 496.761 578.32 496.735 578.473C496.71 578.626 496.718 578.783 496.76 578.933V578.933Z" fill="black"/>
<path d="M498.187 558.517C498.841 558.253 499.273 557.774 498.994 557.089C498.896 556.892 498.754 556.721 498.579 556.589C498.403 556.456 498.199 556.366 497.984 556.326C497.829 556.307 497.672 556.326 497.525 556.38C497.379 556.433 497.247 556.521 497.141 556.635C497.035 556.749 496.957 556.886 496.914 557.036C496.871 557.186 496.863 557.344 496.893 557.497C496.904 557.652 496.947 557.802 497.02 557.939C497.092 558.076 497.193 558.197 497.315 558.293C497.437 558.389 497.577 558.458 497.727 558.497C497.878 558.535 498.034 558.542 498.187 558.517V558.517Z" fill="black"/>
<path d="M499.069 550.475C499.062 550.39 499.049 550.306 499.03 550.223C498.571 550.601 498.112 550.976 497.654 551.36H497.666C497.817 551.408 497.976 551.423 498.133 551.403C498.29 551.383 498.441 551.329 498.574 551.245C498.708 551.16 498.822 551.048 498.907 550.915C498.993 550.782 499.048 550.631 499.069 550.475V550.475Z" fill="black"/>
<path d="M494.441 588.539C493.619 588.539 493.542 589.215 493.723 589.852C493.769 590.071 493.865 590.276 494.003 590.452C494.142 590.628 494.32 590.769 494.522 590.864C494.786 590.275 495.059 589.685 495.327 589.096C495.247 588.929 495.121 588.788 494.965 588.69C494.808 588.591 494.627 588.539 494.441 588.539V588.539Z" fill="black"/>
<path d="M499.071 571.399C499.039 571.245 498.971 571.1 498.873 570.977C498.776 570.853 498.651 570.753 498.509 570.686C498.366 570.618 498.21 570.584 498.052 570.587C497.895 570.589 497.74 570.628 497.6 570.7C497.374 570.771 497.182 570.92 497.058 571.121C496.933 571.322 496.885 571.561 496.922 571.794C496.933 571.947 496.974 572.097 497.043 572.233C497.113 572.37 497.209 572.492 497.327 572.59C497.445 572.689 497.581 572.763 497.728 572.807C497.875 572.852 498.029 572.866 498.182 572.849C498.887 572.591 499.292 572.112 499.071 571.399Z" fill="black"/>
<path d="M487.735 560.727C487.688 560.635 487.611 560.563 487.516 560.521C487.196 560.833 486.881 561.154 486.562 561.469C486.71 561.596 486.896 561.669 487.09 561.678C487.203 561.678 487.315 561.651 487.415 561.598C487.516 561.545 487.602 561.468 487.665 561.374C487.729 561.28 487.769 561.172 487.781 561.059C487.793 560.947 487.777 560.832 487.735 560.727V560.727Z" fill="black"/>
<path d="M487.913 588.971C487.887 588.865 487.836 588.767 487.764 588.686C487.693 588.604 487.602 588.541 487.501 588.502C487.4 588.462 487.29 588.448 487.182 588.46C487.074 588.472 486.971 588.51 486.881 588.571C486.72 588.704 486.588 588.868 486.493 589.054C486.397 589.239 486.34 589.442 486.324 589.65C486.314 590.108 486.688 590.428 487.275 590.358C487.413 590.315 487.541 590.244 487.649 590.149C487.757 590.055 487.845 589.938 487.905 589.807C487.965 589.676 487.997 589.534 487.998 589.39C488 589.245 487.97 589.103 487.913 588.971V588.971Z" fill="black"/>
<path d="M486.414 575.056C486.224 575.556 486.514 575.893 487.02 576.042C487.27 575.903 487.667 575.819 487.746 575.613C487.793 575.51 487.814 575.398 487.807 575.285C487.8 575.173 487.765 575.064 487.706 574.968C487.646 574.872 487.564 574.792 487.467 574.735C487.369 574.679 487.259 574.647 487.147 574.643C487 574.645 486.856 574.684 486.728 574.756C486.6 574.829 486.492 574.932 486.414 575.056V575.056Z" fill="black"/>
<path d="M487.053 595.695C486.28 595.709 486.054 596.319 486.087 596.931C486.088 597.08 486.121 597.228 486.185 597.364C486.249 597.499 486.342 597.619 486.458 597.714C486.573 597.809 486.709 597.878 486.854 597.915C486.999 597.952 487.151 597.957 487.298 597.929C487.597 597.9 487.872 597.754 488.064 597.524C488.257 597.294 488.351 596.997 488.327 596.698C488.28 596.401 488.122 596.133 487.886 595.947C487.65 595.761 487.353 595.671 487.053 595.695V595.695Z" fill="black"/>
<path d="M486.893 602.567C486.698 602.669 486.528 602.815 486.399 602.994C486.269 603.172 486.182 603.379 486.146 603.596C486.125 603.752 486.14 603.91 486.191 604.059C486.241 604.208 486.326 604.343 486.437 604.453C486.549 604.563 486.685 604.646 486.834 604.695C486.984 604.744 487.142 604.758 487.298 604.735C488.007 604.666 488.319 604.119 488.297 603.408C488.069 602.721 487.579 602.304 486.893 602.567Z" fill="black"/>
<path d="M490.457 594.197C490.602 594.234 490.754 594.238 490.901 594.208C491.048 594.178 491.186 594.116 491.306 594.025C491.425 593.934 491.523 593.818 491.591 593.685C491.659 593.552 491.697 593.405 491.701 593.255C491.731 593.109 491.732 592.959 491.702 592.813C491.672 592.667 491.612 592.529 491.527 592.408C491.441 592.286 491.332 592.183 491.205 592.105C491.078 592.028 490.936 591.977 490.789 591.957C490.13 591.977 489.59 592.236 489.504 592.926C489.476 593.073 489.478 593.224 489.511 593.37C489.545 593.516 489.608 593.654 489.698 593.773C489.788 593.893 489.902 593.993 490.033 594.066C490.163 594.139 490.308 594.184 490.457 594.197Z" fill="black"/>
<path d="M490.895 565.565C491.116 565.516 491.311 565.388 491.445 565.207C491.579 565.025 491.643 564.8 491.625 564.575C491.573 564.278 491.421 564.008 491.195 563.808C490.968 563.608 490.681 563.492 490.379 563.477C490.265 563.467 490.149 563.481 490.041 563.518C489.932 563.555 489.832 563.615 489.747 563.693C489.663 563.771 489.595 563.866 489.549 563.971C489.503 564.077 489.48 564.19 489.48 564.306C489.48 565.186 489.965 565.731 490.895 565.565Z" fill="black"/>
<path d="M491.014 577.734C490.535 577.535 490.177 577.89 489.996 578.313C489.928 578.443 489.89 578.588 489.884 578.735C489.878 578.883 489.904 579.03 489.961 579.166C490.019 579.302 490.105 579.424 490.215 579.522C490.324 579.621 490.454 579.695 490.596 579.738C491.064 579.929 491.395 579.558 491.631 579.155C491.696 579.023 491.732 578.878 491.735 578.731C491.738 578.584 491.71 578.438 491.651 578.302C491.592 578.167 491.505 578.046 491.395 577.948C491.285 577.85 491.155 577.777 491.014 577.734V577.734Z" fill="black"/>
<path d="M490.135 600.01C490.121 600.126 490.13 600.244 490.163 600.356C490.196 600.468 490.252 600.572 490.326 600.661C490.485 600.275 490.643 599.887 490.804 599.5C490.652 599.502 490.506 599.553 490.385 599.645C490.265 599.737 490.177 599.865 490.135 600.01Z" fill="black"/>
<path d="M491.527 586.088C491.421 585.82 491.39 585.436 491.192 585.306C491.102 585.24 490.997 585.197 490.886 585.182C490.776 585.166 490.663 585.179 490.558 585.218C490.454 585.257 490.36 585.321 490.287 585.405C490.213 585.489 490.161 585.59 490.136 585.699C490.12 585.844 490.14 585.991 490.195 586.126C490.249 586.261 490.337 586.381 490.449 586.474C490.893 586.759 491.279 586.539 491.527 586.088Z" fill="black"/>
<path d="M488.295 568.034C488.278 567.885 488.231 567.74 488.155 567.61C488.08 567.479 487.979 567.366 487.857 567.277C487.736 567.187 487.598 567.124 487.451 567.091C487.304 567.058 487.152 567.055 487.004 567.083C486.28 567.149 486.026 567.709 486.089 568.358C486.158 569.073 486.666 569.329 487.339 569.319C487.487 569.299 487.629 569.249 487.757 569.173C487.886 569.098 487.998 568.997 488.087 568.877C488.176 568.758 488.24 568.621 488.276 568.477C488.311 568.332 488.318 568.181 488.295 568.034Z" fill="black"/>
<path d="M455.368 606.232H455.361C455.316 606.339 455.261 606.443 455.221 606.549C455.448 606.518 455.666 606.493 455.89 606.464C455.827 606.387 455.747 606.326 455.656 606.286C455.566 606.246 455.467 606.227 455.368 606.232V606.232Z" fill="black"/>
<path d="M466.226 602.633C466.118 602.59 466.001 602.57 465.884 602.575C465.767 602.58 465.653 602.609 465.548 602.661C465.443 602.713 465.351 602.786 465.276 602.876C465.202 602.966 465.147 603.071 465.116 603.184C465.035 603.318 464.99 603.471 464.983 603.628C464.977 603.785 465.009 603.941 465.078 604.082C465.146 604.223 465.249 604.345 465.376 604.437C465.503 604.529 465.651 604.588 465.807 604.609C466.337 604.732 466.643 604.315 466.542 604.696C466.864 603.293 466.668 602.826 466.226 602.633Z" fill="black"/>
<path d="M466.034 590.326C466.468 590.185 466.709 589.827 466.664 589.179C466.433 588.993 466.135 588.552 465.795 588.516C464.941 588.428 464.896 589.084 465.069 589.683C465.185 590.103 465.503 590.503 466.034 590.326Z" fill="black"/>
<path d="M687.069 615.148C693.81 627.526 706.544 619.141 706.544 584.265C706.544 563.65 694.184 553.758 694.184 553.758L674.834 572.606L678.334 594.075L687.069 615.148Z" fill="black"/>
<path d="M686.179 615.548C687.879 618.627 690.717 621.638 694.557 621.093C698.875 620.481 701.548 616.213 703.129 612.555C706.338 605.128 707.17 596.699 707.442 588.698C707.742 579.8 706.751 571.11 702.542 563.141C700.693 559.371 698.109 556.008 694.942 553.25C694.537 552.925 693.705 553.24 693.394 553.543L683.095 563.574L676.457 570.038L674.504 571.938C674.181 572.252 673.904 572.438 673.873 572.908C673.913 573.584 674.022 574.254 674.199 574.907L674.856 578.942L676.479 588.908C676.676 590.729 676.97 592.538 677.361 594.327C677.921 595.94 678.576 597.519 679.322 599.056L686.101 615.402C686.415 616.16 688.326 615.592 688.033 614.884L680.533 596.806C679.872 595.423 679.381 593.964 679.071 592.462L677.283 581.484L675.795 572.342L675.619 572.817L692.554 556.32L694.969 553.969L693.421 554.261C693.149 554.042 693.744 554.549 693.841 554.638C694.311 555.07 694.76 555.527 695.195 555.994C696.696 557.621 698.041 559.385 699.212 561.263C703.18 567.745 705.364 575.161 705.541 582.758C705.821 591.287 705.165 600.304 702.707 608.513C701.573 612.297 699.707 617.643 695.829 619.51C692.5 621.117 689.465 617.483 687.955 614.742C687.61 614.111 685.741 614.753 686.179 615.548Z" fill="black"/>
<path d="M931.264 747.354C903.922 747.354 889.316 682.568 847.366 682.568C841.301 682.489 835.268 683.472 829.542 685.474C793.078 623.029 727.274 574.299 694.183 553.754C685.509 554.167 677.27 557.677 670.963 563.646C722.513 603.309 749.585 653.402 762.293 701.783C747.56 707.056 735.382 719.72 735.382 744.728C735.382 773.187 756.563 784.25 760.101 814.751C763.101 840.59 756.656 860.961 752.235 879.159C745.868 905.37 775.082 917.727 790.434 885.898C804.22 857.324 796.426 812.505 805.79 817.373C821.701 825.645 823.389 868.461 820.28 886.931C814.78 919.6 850.504 923.654 857.849 890.766C866.464 852.197 838.374 809.646 851.107 805.086C863.841 800.526 880.533 833.045 881.07 860.437C881.819 898.629 920.74 883.332 918.523 846.208C917.023 821.114 910.283 794.533 896.052 776.559C918.336 793.222 960.063 792.037 963.841 767.197C966.439 750.161 941.386 747.354 931.264 747.354Z" fill="white"/>
<path d="M931.633 746.784C925.222 746.74 919.742 742.947 915.263 738.686C909.502 733.203 904.771 726.689 900.021 720.343C890.022 706.987 879.356 691.879 863.435 685.195C852.636 680.66 840.077 681.172 829.157 685.06L830.44 685.096C813.395 655.981 790.728 630.385 765.979 607.6C745.991 589.173 724.5 572.446 701.73 557.594C700.486 556.784 699.237 555.981 697.984 555.185C697.006 554.39 695.925 553.728 694.772 553.219C693.606 552.899 691.872 553.365 690.724 553.54C683.018 554.66 675.846 558.13 670.186 563.477C670.063 563.595 669.869 563.876 670.069 564.036C688.859 578.44 705.567 595.372 719.718 614.351C732.426 631.557 742.877 650.318 750.817 670.179C754.974 680.574 758.484 691.218 761.325 702.048L761.903 701.369C755.998 703.423 750.658 706.834 746.311 711.326C741.963 715.819 738.731 721.268 736.873 727.237C734.458 735.202 733.766 743.59 734.843 751.843C735.869 758.856 738.102 765.639 741.442 771.891C744.593 778.072 748.304 783.949 751.414 790.153C755.084 797.274 757.593 804.935 758.845 812.848C761.612 831.595 758.502 850.27 753.971 868.463C752.319 875.093 749.841 881.923 750.471 888.849C750.796 893.782 753.031 898.395 756.703 901.707C765.103 908.805 776.673 904.69 783.515 897.541C794.18 886.398 797.567 869.8 799.335 855.013C800.165 848.064 800.584 841.078 801.057 834.098C801.373 829.419 801.396 824.317 802.872 819.816C803.048 819.199 803.32 818.614 803.677 818.082C803.81 817.873 803.993 817.701 804.209 817.582C805.569 817.482 807.661 819.606 808.577 820.522C812.535 824.479 814.748 829.982 816.339 835.249C820.177 847.954 821.022 861.757 820.47 874.957C820.35 877.83 820.145 880.701 819.805 883.555C819.445 886.58 818.833 889.56 818.748 892.616C818.603 897.884 819.611 903.367 822.801 907.683C828.341 915.182 838.575 915.682 846.081 910.915C857.868 903.428 860.474 887.59 860.486 874.742C860.501 859.097 856.366 843.968 852.272 828.997C850.818 823.679 849.117 818.206 848.75 812.675C848.55 809.641 848.912 805.676 852.639 805.263C857.817 804.689 862.378 810.053 865.113 813.722C869.577 819.997 873.018 826.939 875.307 834.291C878.047 842.326 879.644 850.706 880.054 859.185C880.304 865.323 880.717 871.673 884.162 876.981C889.062 884.531 898.379 884.512 905.353 879.866C914.86 873.531 919.233 861.587 919.553 850.572C919.811 841.774 918.434 832.703 916.816 824.078C915.184 815.081 912.647 806.272 909.245 797.784C906.166 790.046 902.024 782.775 896.938 776.18L895.147 776.949C902.851 782.49 911.774 786.097 921.165 787.465C929.857 788.834 939.064 788.634 947.444 785.742C954.665 783.248 961.23 778.416 963.835 770.993C965.113 767.353 965.55 763.183 963.987 759.56C962.39 756.26 959.736 753.59 956.445 751.973C949.06 747.948 939.926 746.805 931.619 746.788C930.865 746.788 929.577 747.922 930.878 747.925C942.678 747.949 965.7 751.167 962.777 767.83C959.777 784.95 939.285 788.369 924.912 786.733C914.826 785.709 905.183 782.071 896.934 776.18C896.475 775.84 894.59 776.246 895.143 776.949C906.184 790.997 912.025 808.594 915.135 825.995C915.95 830.552 916.578 835.139 917.02 839.754C917.513 843.848 917.693 847.973 917.558 852.095C917.282 858.418 915.522 864.587 912.419 870.104C908.425 876.965 899.673 885.166 891.094 880.973C886.935 878.941 884.594 874.596 883.381 870.309C882.54 867.157 882.088 863.914 882.035 860.653C881.927 856.373 881.514 852.107 880.8 847.886C879.413 839.82 876.989 831.967 873.589 824.522C870.862 818.586 867.442 812.476 862.526 808.065C859.381 805.243 855.22 803.116 850.96 804.585C847.721 805.701 846.74 808.648 846.76 811.835C846.79 816.771 848.241 821.717 849.502 826.448C851.352 833.39 853.36 840.289 854.966 847.295C858.522 862.799 860.847 880.21 855.543 895.607C852.365 904.83 843.922 915.186 832.943 912.577C821.59 909.878 819.681 896.526 821.231 886.824C822.99 874.808 823.064 862.606 821.45 850.569C820.761 844.211 819.379 837.946 817.328 831.888C815.628 827.124 813.26 822.14 809.328 818.802C807.302 817.083 804.15 815.134 802.014 817.803C799.879 820.471 799.856 825.179 799.561 828.4C798.295 842.215 798.056 856.094 794.955 869.681C793.23 877.239 790.694 884.735 786.499 891.303C783.076 896.662 778.233 901.857 771.936 903.678C769.729 904.339 767.396 904.466 765.13 904.049C762.864 903.632 760.73 902.682 758.903 901.279C754.915 898.162 752.841 893.275 752.388 888.325C751.75 881.364 754.353 874.407 756.007 867.743C758.191 859.389 759.842 850.905 760.951 842.342C762.096 832.913 762.105 823.38 760.978 813.948C759.938 806.049 757.617 798.373 754.106 791.221C748.121 778.773 739.515 767.517 737.099 753.617C734.591 739.192 737.362 722.073 747.998 711.34C752.148 707.246 757.157 704.126 762.663 702.207C762.899 702.122 763.323 701.841 763.241 701.529C758.105 681.823 750.707 662.777 741.192 644.771C730.754 625.155 717.733 607.026 702.477 590.869C693.009 580.882 682.773 571.652 671.862 563.266L671.746 563.825C676.895 558.912 683.435 555.709 690.474 554.653C691.291 554.529 692.111 554.43 692.935 554.37C693.144 554.34 693.356 554.327 693.567 554.332C693.797 554.373 693.782 554.432 693.667 554.391C694.647 554.889 695.58 555.475 696.454 556.142C697.52 556.821 698.587 557.505 699.654 558.195C709.618 564.658 719.316 571.539 728.766 578.733C753.101 597.26 775.988 617.915 796.069 641.019C808.296 654.926 819.204 669.94 828.652 685.866C828.867 686.232 829.669 685.996 829.935 685.901C840.039 682.302 851.761 681.941 861.754 686.089C869.528 689.316 876.105 694.798 881.853 700.852C887.801 707.117 892.963 714.068 898.13 720.973C902.803 727.218 907.451 733.611 913.065 739.06C917.926 743.778 923.876 747.876 930.896 747.924C931.647 747.926 932.934 746.793 931.633 746.784Z" fill="black"/>
<path d="M896.95 776.168C894.099 772.022 892.022 767.395 890.819 762.51C889.74 757.492 889.001 752.406 888.606 747.288C887.857 740.023 887.08 732.811 883.193 726.445C880.248 721.946 876.636 717.92 872.48 714.507C871.927 714.024 870.111 714.784 870.694 715.293C877.202 720.975 882.912 727.435 884.984 736.013C887.028 744.479 886.759 753.342 888.617 761.854C889.809 767.26 892.032 772.386 895.164 776.951C895.564 777.542 897.433 776.878 896.95 776.165V776.168Z" fill="black"/>
<path d="M694.184 553.758C644.456 519.74 611.9 512.178 591.667 512.153C591.632 512.153 591.6 512.153 591.567 512.153C540.705 512.153 501.635 554.193 481.688 604.95C481.526 605.349 481.363 605.749 481.21 606.164C480.348 608.395 479.525 610.644 478.74 612.911C469.8 638.586 465.692 665.99 467.338 691.014C472.124 691.339 476.955 691.506 481.83 691.514C485.458 691.514 489.06 691.421 492.635 691.236C492.855 691.227 493.076 691.217 493.296 691.198C494.596 691.131 495.896 691.045 497.201 690.949C544.495 687.495 589.16 667.876 623.695 635.387C612.456 600.162 611.412 554.882 621.148 531.842C642.112 545.076 665.496 573.198 687.067 615.148C677.955 595.656 679.702 565.522 694.184 553.758Z" fill="url(#paint1_linear)"/>
<path d="M694.922 553.174C674.387 539.143 652.483 526.28 628.832 518.261C614.296 513.331 598.999 510.386 583.615 511.745C561.498 513.7 541.155 523.965 524.769 538.678C507.222 554.433 493.97 574.652 484.409 596.092C472.634 622.498 465.915 651.633 466.001 680.594C466.011 684.09 466.129 687.583 466.356 691.073C466.358 691.25 466.428 691.42 466.55 691.547C466.673 691.675 466.839 691.752 467.016 691.762C490.656 693.389 514.402 691.031 537.261 684.787C558.115 679.022 577.944 670.043 596.033 658.173C606.094 651.568 615.568 644.109 624.349 635.878C624.466 635.796 624.558 635.682 624.614 635.55C624.669 635.418 624.686 635.273 624.662 635.132C620.238 620.957 617.407 606.334 616.222 591.533C614.886 577.702 615.229 563.76 617.243 550.012C618.131 543.831 619.755 537.778 622.08 531.983L620.412 532.43C629.961 538.479 638.311 546.314 645.831 554.703C655.494 565.666 664.167 577.462 671.75 589.954C676.913 598.297 681.696 606.87 686.187 615.592C686.57 616.336 688.404 615.692 688.034 614.892C684.42 606.835 682.521 598.116 682.457 589.286C682.311 580.826 683.566 572.074 687.216 564.374C688.98 560.479 691.582 557.021 694.836 554.247C695.846 553.416 694.322 552.622 693.531 553.274C687.295 558.402 683.847 566.08 682.059 573.797C680.073 582.756 679.929 592.026 681.635 601.042C682.51 606.001 684.011 610.828 686.102 615.409L687.948 614.709C680.398 599.817 671.747 585.51 662.067 571.906C654.48 561.134 645.785 551.187 636.123 542.229C631.7 538.172 626.937 534.501 621.887 531.257C621.749 531.173 621.595 531.118 621.435 531.095C621.276 531.072 621.113 531.082 620.957 531.123C620.801 531.165 620.655 531.238 620.528 531.338C620.401 531.438 620.295 531.562 620.218 531.704C615.581 542.759 614.142 555.134 613.662 567.014C613.121 581.784 614.163 596.57 616.769 611.118C618.208 619.418 620.199 627.612 622.73 635.646L623.043 634.901C607.611 649.379 590.056 661.414 570.986 670.588C551.406 679.978 530.457 686.196 508.923 689.007C495.244 690.775 481.423 691.197 467.661 690.266L468.321 690.954C466.448 661.881 471.878 632.101 482.617 605.084C491.287 583.274 503.338 562.566 519.789 545.685C535.011 530.065 554.243 518.106 575.919 514.255C591.482 511.491 607.148 513.377 622.189 517.867C644.288 524.466 664.887 535.71 684.176 548.173C687.294 550.189 690.384 552.245 693.448 554.342C694.209 554.863 695.862 553.816 694.922 553.174Z" fill="black"/>
<path d="M779.779 699.652C785.206 699.668 790.832 700.183 795.834 702.442C800.005 704.348 803.494 707.482 805.834 711.425C806.199 712.025 807.772 711.464 807.692 710.771C807.215 706.339 808.138 701.869 810.33 697.987C812.042 694.911 814.559 691.889 817.893 690.521C819.13 690.014 818.017 689.221 817.093 689.6C809.043 692.899 804.812 703.089 805.757 711.289L807.616 710.635C805.151 706.51 801.464 703.254 797.066 701.318C791.867 699.048 786.11 698.459 780.492 698.443C780.107 698.443 779.381 698.563 779.223 698.994C779.078 699.394 779.35 699.651 779.771 699.652H779.779Z" fill="black"/>
<path d="M654.942 248.444C639.998 240.356 634.443 229.349 635.898 210.486C638.171 181.108 689.455 132.534 770.678 153.41C744.502 156.859 738.779 174.173 738.128 182.633C735.585 215.52 804.142 230.308 800.426 278.304C797.341 318.195 760.359 324.509 745.095 328.413C729.832 332.316 656.508 308.402 654.942 248.444Z" fill="url(#paint2_linear)"/>
<path d="M655.695 247.923C649.501 244.548 643.842 240.05 640.481 233.727C637.012 227.198 636.357 219.582 636.743 212.316C637.223 203.307 640.992 195.152 646.222 187.904C653.038 178.746 661.598 171.027 671.41 165.192C683.502 157.898 696.88 152.989 710.82 150.73C728.124 148.008 745.786 148.547 762.891 152.32C765.307 152.83 767.711 153.394 770.103 154.009L770.779 152.773C762.453 153.897 754.17 156.601 747.717 162.154C743.34 165.931 740.109 170.859 738.392 176.379C736.981 180.676 736.725 185.267 737.651 189.693C738.915 194.555 741.268 199.065 744.532 202.883C752.232 212.453 762.514 219.728 771.749 227.702C781.51 236.132 791.249 245.598 796.232 257.746C801.847 271.435 800.32 288.105 792.713 300.759C785.887 312.112 774.234 319.054 761.953 323.194C757.153 324.811 752.245 326.03 747.329 327.231C744.431 328.027 741.414 328.3 738.419 328.037C728.514 327.159 718.688 323.655 709.72 319.519C697.643 314.092 686.661 306.502 677.315 297.124C667.276 286.827 659.925 274.063 657.174 259.867C656.442 256.07 656.022 252.22 655.918 248.354C655.892 247.421 653.949 247.774 653.971 248.54C654.412 263.465 659.498 277.881 668.522 289.779C676.695 300.637 687.541 309.355 699.329 316.016C709.127 321.681 719.739 325.805 730.793 328.244C734.503 329.111 738.307 329.511 742.116 329.434C745.783 329.267 749.488 327.986 753.021 327.077C764.632 324.088 776.197 319.798 785.357 311.819C796.89 301.772 802.486 286.273 801.433 271.128C800.504 257.769 793.272 246.314 784.201 236.869C775.162 227.457 764.526 219.828 754.925 211.033C747.4 204.14 739.162 195.452 739.037 184.576C738.903 172.86 746.645 162.502 757.074 157.747C761.368 155.859 765.916 154.613 770.573 154.047C771.065 153.98 772.322 153.085 771.248 152.81C753.465 148.264 734.909 146.44 716.637 148.646C701.876 150.34 687.576 154.843 674.508 161.912C663.889 167.601 654.481 175.305 646.809 184.594C641.204 191.557 636.357 199.863 635.11 208.851C634.147 215.817 634.462 223.525 636.795 230.199C639.156 236.613 643.494 242.111 649.182 245.901C650.793 247.013 652.464 248.036 654.187 248.965C654.85 249.326 656.584 248.407 655.695 247.923Z" fill="black"/>
<path d="M814.438 402.592C830.496 337.528 774.338 267.718 689.007 246.666C603.675 225.614 521.482 261.293 505.425 326.357C489.367 391.42 545.525 461.231 630.856 482.283C716.188 503.334 798.38 467.656 814.438 402.592Z" fill="white"/>
<path d="M815.394 402.431C818.415 390.013 818.94 377.119 816.939 364.497C814.799 351.53 810.417 339.034 803.989 327.57C797.203 315.45 788.709 304.367 778.769 294.663C767.919 284.034 755.747 274.844 742.553 267.317C728.456 259.25 713.439 252.908 697.826 248.429C681.578 243.715 664.816 241 647.911 240.344C632.119 239.713 616.311 241.076 600.86 244.398C586.519 247.446 572.675 252.486 559.732 259.371C547.706 265.747 536.83 274.085 527.552 284.043C518.676 293.641 511.792 304.904 507.299 317.179C502.937 329.34 501.103 342.262 501.907 355.156C502.8 368.119 506.043 380.811 511.477 392.614C517.216 405.062 524.794 416.576 533.958 426.77C543.858 437.822 555.164 447.529 567.586 455.645C580.931 464.391 595.289 471.486 610.344 476.772C626.382 482.446 643.05 486.15 659.982 487.805C676.027 489.398 692.208 488.985 708.15 486.574C722.828 484.375 737.145 480.218 750.717 474.214C763.386 468.637 775.085 461.077 785.374 451.819C795.161 442.984 803.155 432.349 808.921 420.493C811.684 414.705 813.853 408.652 815.397 402.427C815.513 401.962 813.615 402.236 813.487 402.75C810.329 415.37 804.643 427.218 796.772 437.576C788.66 448.108 778.761 457.134 767.525 464.242C755.384 471.929 742.163 477.761 728.3 481.544C713.353 485.648 697.934 487.783 682.434 487.897C665.66 488.041 648.933 486.103 632.636 482.128C616.781 478.326 601.437 472.644 586.929 465.205C573.532 458.348 561.031 449.864 549.71 439.947C539.12 430.706 529.867 420.036 522.217 408.246C515.138 397.352 509.884 385.375 506.663 372.789C503.552 360.489 502.863 347.701 504.634 335.138C506.511 322.392 510.968 310.162 517.733 299.197C524.751 287.991 533.783 278.179 544.373 270.259C555.627 261.85 568.11 255.223 581.382 250.613C595.798 245.585 610.826 242.522 626.06 241.508C642.503 240.381 659.022 241.311 675.234 244.277C691.481 247.199 707.322 252.041 722.425 258.701C736.549 264.914 749.86 272.832 762.06 282.279C773.314 290.961 783.361 301.105 791.934 312.442C799.964 323.038 806.274 334.833 810.633 347.392C814.735 359.274 816.597 371.814 816.125 384.375C815.85 390.572 814.965 396.726 813.484 402.75C813.37 403.22 815.268 402.944 815.394 402.431Z" fill="black"/>
<path d="M561.425 266.651C543.654 289.132 528.194 331.823 553.756 348.862C579.318 365.9 592.661 323.989 607.437 298.599C623.892 270.324 649.441 245.241 631.267 235.627C614.226 226.611 582.297 240.242 561.425 266.651Z" fill="white"/>
<path d="M560.634 266.432C553.662 275.342 548.137 285.296 544.263 295.926C540.493 306.209 538.04 317.632 539.894 328.58C541.599 338.633 547.788 347.622 557.298 351.75C561.117 353.5 565.421 353.883 569.489 352.836C573.514 351.58 577.149 349.312 580.047 346.249C587.69 338.678 592.722 328.573 597.586 319.113C600.244 313.945 602.823 308.736 605.586 303.617C608.86 297.545 612.522 291.704 616.346 285.967C620.345 279.961 624.52 274.069 628.455 268.021C631.624 263.15 634.785 258.123 636.86 252.674C638.252 249.014 639.311 244.691 637.733 240.91C636.149 237.111 632.35 234.919 628.61 233.657C619.117 230.453 608.366 232.905 599.372 236.538C587.337 241.401 576.508 249.3 567.509 258.59C565.089 261.088 562.798 263.702 560.637 266.433C559.902 267.36 561.746 267.468 562.219 266.872C570.359 256.468 580.497 247.795 592.037 241.364C600.96 236.494 611.455 232.612 621.785 233.629C625.851 234.029 630.321 235.298 633.404 238.113C636.256 240.718 636.958 244.367 636.304 248.061C635.447 252.916 632.973 257.448 630.51 261.658C627.249 267.229 623.561 272.543 619.922 277.87C615.816 283.882 611.71 289.902 607.95 296.14C605.05 300.944 602.45 305.906 599.892 310.899C594.931 320.597 590.23 330.61 583.818 339.465C579.194 345.849 572.533 353.051 563.872 352.113C559.203 351.607 554.778 348.973 551.324 345.914C547.686 342.667 544.935 338.547 543.33 333.942C539.878 324.153 541.092 313.242 543.754 303.421C546.767 292.597 551.503 282.328 557.778 273.008C559.178 270.908 560.653 268.855 562.216 266.871C562.948 265.941 561.106 265.834 560.634 266.432Z" fill="black"/>
<path d="M670.295 287.6C654.266 308.063 626.066 365.09 664.819 382.357C703.572 399.624 711.574 352.877 726.317 323.818C736.745 303.266 760.569 275.093 741.705 259.478C727.016 247.316 697.676 252.644 670.295 287.6Z" fill="white"/>
<path d="M669.419 287.664C663.087 295.935 657.761 304.929 653.555 314.458C648.707 325.187 644.87 336.809 644.376 348.656C643.932 359.314 646.837 370.091 655.168 377.249C660.022 381.244 665.733 384.063 671.856 385.486C676.97 386.848 682.358 386.803 687.449 385.355C697.486 382.31 704.043 373.52 708.875 364.706C714.722 354.04 718.744 342.497 723.639 331.39C726.242 325.544 729.183 319.855 732.449 314.351C736.331 307.747 740.387 301.226 743.779 294.348C746.694 288.439 749.345 282.034 749.687 275.373C749.887 272.383 749.385 269.387 748.222 266.625C747.059 263.863 745.266 261.411 742.987 259.464C735.377 252.89 724.735 252.123 715.281 254.265C701.082 257.484 688.735 266.652 678.758 276.919C675.458 280.334 672.339 283.92 669.415 287.662C669.023 288.162 670.871 287.915 671.169 287.536C680.89 275.165 692.944 263.359 707.75 257.343C717.07 253.555 728.16 252.244 737.258 257.382C742.003 260.06 745.871 264.311 747.206 269.679C748.697 275.678 747.126 281.996 744.979 287.628C739.94 300.85 731.208 312.223 724.938 324.82C719.743 335.266 715.898 346.315 711.019 356.906C706.753 366.166 701.542 376.407 692.72 382.124C683.192 388.297 670.986 385.423 661.775 379.99C657.133 377.315 653.278 373.464 650.6 368.824C648.185 364.373 646.758 359.453 646.419 354.4C645.489 343.121 648.475 331.698 652.484 321.247C656.357 311.154 661.388 301.544 667.477 292.61C668.657 290.881 669.882 289.182 671.172 287.532C671.563 287.036 669.716 287.282 669.419 287.664Z" fill="black"/>
<path d="M691.358 306.129C680.682 325.425 673.667 354.561 685.882 358.351C698.098 362.142 706.881 330.439 713.681 316.661C722.106 299.596 737.691 286.76 728.003 280.869C718.314 274.977 702.31 286.336 691.358 306.129Z" fill="black"/>
<path d="M690.4 306.282C686.322 313.679 683.139 321.535 680.918 329.683C679.127 336.282 677.588 343.691 678.889 350.525C679.75 355.043 682.698 359.318 687.773 359.104C692.848 358.89 696.44 354.548 698.993 350.642C706.637 338.944 709.726 324.993 716.557 312.89C720.629 305.677 726.088 299.304 729.989 292.006C731.16 289.814 732.389 287.179 731.966 284.622C731.584 282.297 729.666 280.753 727.621 279.839C722.321 277.467 716.082 279.668 711.422 282.479C704.293 286.778 698.622 293.376 694.062 300.246C692.761 302.209 691.541 304.222 690.399 306.282C690.199 306.636 692.022 306.503 692.314 305.978C696.495 298.466 701.737 291.246 708.45 285.79C712.676 282.356 718.482 278.673 724.198 280.024C726.379 280.54 728.809 281.836 729.712 284.004C730.615 286.173 729.812 288.608 728.903 290.635C727.441 293.625 725.72 296.481 723.76 299.172C721.491 302.5 719.171 305.795 717.027 309.206C709.841 320.641 706.328 333.784 700.108 345.711C698.769 348.388 697.184 350.936 695.375 353.321C694.069 355.191 692.333 356.722 690.314 357.785C686.074 359.67 682.375 355.485 681.262 351.819C679.449 345.858 680.57 339.061 681.901 333.123C683.657 325.491 686.273 318.081 689.7 311.038C690.523 309.327 691.393 307.639 692.31 305.976C692.512 305.621 690.694 305.761 690.4 306.282Z" fill="black"/>
<path d="M580.298 281.242C566.998 304.261 560.998 322.457 570.798 328.416C580.598 334.376 588.069 308.665 597.213 292.837C608.559 273.199 620.812 257.576 614.254 254.299C605.734 250.039 590.521 263.559 580.298 281.242Z" fill="black"/>
<path d="M579.408 281.242C574.852 288.806 570.981 296.761 567.84 305.014C565.935 310.327 564.072 316.563 565.36 322.241C566.209 325.987 569.338 329.939 573.524 329.803C578.263 329.655 581.475 324.931 583.686 321.313C587.314 315.379 590.052 308.925 593.045 302.662C596.796 295.082 600.953 287.71 605.498 280.577C609.233 274.529 613.498 268.429 616.047 261.752C616.711 260.019 617.447 257.853 616.884 255.986C616.376 254.299 614.736 253.546 613.131 253.199C607.946 252.077 602.545 255.286 598.592 258.272C592.34 262.997 587.192 269.244 582.85 275.718C581.64 277.518 580.493 279.359 579.408 281.242C578.98 281.979 580.898 281.753 581.195 281.242C585.078 274.365 589.895 268.06 595.51 262.506C597.758 260.278 600.244 258.303 602.924 256.617C604.965 255.239 607.301 254.357 609.744 254.042C611.344 253.923 613.574 254.242 614.567 255.673C615.495 257.011 615.103 258.896 614.689 260.341C613.863 262.916 612.756 265.394 611.39 267.728C609.656 270.906 607.762 273.998 605.866 277.081C601.701 283.85 597.352 290.549 593.725 297.629C590.665 303.602 588.011 309.774 584.965 315.753C583.654 318.42 582.164 320.995 580.504 323.459C579.35 325.348 577.803 326.966 575.967 328.201C572.578 330.155 568.988 326.423 567.82 323.465C565.966 318.767 567.154 313.236 568.512 308.578C570.693 301.099 574.178 293.999 577.873 287.168C578.949 285.176 580.055 283.201 581.191 281.242C581.621 280.502 579.703 280.73 579.408 281.242Z" fill="black"/>
<path d="M806.505 379.057C813.321 373.766 823.657 373.889 830.636 378.963C837.615 384.037 840.936 393.476 839.136 401.915C838.143 406.127 836.115 410.026 833.235 413.258C830.356 416.49 826.716 418.953 822.644 420.424C818.55 421.823 814.201 422.32 809.897 421.881C805.592 421.441 801.434 420.075 797.707 417.877L806.505 379.057Z" fill="white"/>
<path d="M807.251 379.114C809.776 377.279 812.719 376.105 815.813 375.698C818.907 375.291 822.053 375.663 824.967 376.782C827.778 377.86 830.323 379.533 832.426 381.688C834.529 383.843 836.139 386.428 837.147 389.264C839.259 394.865 839.111 401.067 836.735 406.561C834.268 412.119 829.91 416.623 824.436 419.272C818.153 422.291 810.736 422.25 804.202 420.063C802.502 419.495 800.981 418.643 799.347 417.948C798.66 417.655 798.79 417.895 798.723 417.478C798.776 416.788 798.93 416.109 799.179 415.464L803.698 395.514L807.463 378.898C807.574 378.407 805.669 378.698 805.551 379.216L797.864 413.156L796.758 418.036C796.742 418.067 796.738 418.102 796.747 418.136C796.756 418.169 796.777 418.198 796.806 418.217C809.619 425.572 827.091 423.256 835.969 410.911C837.988 408.158 839.388 405.001 840.072 401.656C840.756 398.311 840.708 394.858 839.932 391.534C839.186 388.194 837.663 385.076 835.486 382.434C833.31 379.792 830.542 377.7 827.406 376.327C823.868 374.894 820.024 374.387 816.236 374.855C812.448 375.322 808.842 376.749 805.76 379C804.964 379.602 806.879 379.397 807.251 379.114Z" fill="white"/>
<path d="M807.124 379.415C809.694 377.54 812.69 376.335 815.843 375.909C818.995 375.482 822.204 375.847 825.18 376.971C828.11 378.113 830.743 379.906 832.878 382.215C835.014 384.523 836.596 387.287 837.506 390.297C838.465 393.254 838.81 396.375 838.521 399.469C838.231 402.563 837.313 405.566 835.822 408.293C832.765 413.866 827.728 418.09 821.707 420.131C817.854 421.311 813.798 421.676 809.797 421.2C805.795 420.725 801.937 419.421 798.468 417.37C797.838 417.007 796.091 417.892 796.954 418.388C803.674 422.277 811.588 423.568 819.197 422.017C826.028 420.551 832.061 416.577 836.104 410.88C838.082 408.113 839.447 404.957 840.107 401.621C840.766 398.285 840.706 394.847 839.93 391.536C839.174 387.995 837.541 384.701 835.179 381.955C832.818 379.21 829.805 377.101 826.417 375.824C823.028 374.546 819.373 374.139 815.786 374.642C812.2 375.144 808.797 376.539 805.89 378.699C804.847 379.49 806.449 379.93 807.127 379.415H807.124Z" fill="black"/>
<path d="M831.922 388.312C832.187 388.462 830.477 391.905 828.202 395.064C827.064 396.636 825.842 398.164 824.85 399.264C823.858 400.363 823.15 401.095 823.111 401.144C823.072 401.193 822.311 401.87 821.167 402.809C819.78 403.944 818.337 405.008 816.842 405.998C813.601 408.152 810.098 409.73 809.959 409.459C809.82 409.188 812.993 407.132 815.899 404.717C817.35 403.507 818.768 402.258 819.794 401.257C820.82 400.256 821.501 399.557 821.551 399.524C821.601 399.492 822.32 398.83 823.351 397.833C824.382 396.836 825.694 395.474 826.959 394.069C829.481 391.258 831.65 388.153 831.922 388.312Z" fill="black"/>
<path d="M826.395 409.746C826.13 409.9 824.227 407.119 822.677 404.082C821.906 402.566 821.19 401.009 820.699 399.805C820.208 398.602 819.899 397.768 819.877 397.718C819.855 397.668 819.611 396.818 819.299 395.552C818.987 394.287 818.629 392.618 818.348 390.941C817.791 387.58 817.668 384.215 817.973 384.182C818.278 384.149 818.963 387.403 819.9 390.592C820.372 392.192 820.868 393.776 821.287 394.966L822.015 397.015C822.03 397.065 822.28 397.889 822.647 399.096C823.014 400.302 823.563 401.876 824.132 403.441C825.276 406.565 826.667 409.589 826.395 409.746Z" fill="black"/>
<path d="M771.244 402.339C771.244 425.805 748.588 456.247 703.546 456.247C679.247 456.247 666.889 443.816 664.748 431.358L664.738 431.348C663.119 421.871 667.397 412.374 676.806 408.303C680.2 406.88 683.851 406.172 687.531 406.224C692.684 406.309 697.814 405.516 702.701 403.879C711.728 400.71 717.174 394.736 721.668 388.595C727.33 380.855 731.5 372.849 739.457 369.847C741.76 368.992 744.201 368.569 746.657 368.601C754.488 368.601 761.7 373.555 766.262 381.737C769.644 388.071 771.359 395.16 771.244 402.339Z" fill="black"/>
<path d="M770.267 402.421C770.224 417.075 762.038 430.874 750.968 440.046C743.902 445.817 735.713 450.057 726.922 452.496C716.192 455.545 704.251 456.636 693.23 454.686C684.439 453.13 675.761 449.087 670.342 441.77C665.408 435.11 663.727 426.012 667.342 418.345C668.506 415.918 670.157 413.756 672.193 411.994C674.229 410.232 676.605 408.909 679.175 408.105C682.167 407.242 685.271 406.832 688.384 406.888C691.456 406.851 694.518 406.537 697.534 405.95C702.952 404.918 708.069 402.678 712.503 399.398C716.541 396.206 720.071 392.42 722.974 388.17C726.274 383.59 729.2 378.61 733.287 374.666C735.312 372.657 737.773 371.142 740.478 370.238C743.184 369.333 746.061 369.064 748.887 369.451C760.321 371.051 767.177 382.634 769.32 393C769.949 396.101 770.266 399.257 770.267 402.421C770.267 403.392 772.223 403.074 772.22 402.255C772.167 390.679 768.155 377.66 757.846 371.173C753.207 368.267 747.625 367.264 742.264 368.373C736.696 369.484 732.295 373.025 728.785 377.335C725.046 381.925 722.072 387.081 718.31 391.655C714.723 396.219 710.113 399.876 704.852 402.331C702.115 403.526 699.24 404.378 696.293 404.868C692.959 405.32 689.599 405.559 686.235 405.584C680.41 405.706 674.807 407.839 670.375 411.621C663.23 418.038 661.739 428.555 665.436 437.16C668.826 445.052 675.835 450.617 683.726 453.642C694.562 457.796 706.947 457.611 718.249 455.748C728.206 454.199 737.74 450.623 746.259 445.241C759.409 436.757 769.925 422.885 771.912 407.079C772.113 405.48 772.216 403.87 772.22 402.259C772.222 401.284 770.27 401.6 770.267 402.421Z" fill="black"/>
<path d="M676.812 408.302C698.105 451.713 676.597 446.533 664.754 431.357L664.744 431.347C663.125 421.87 667.402 412.373 676.812 408.302Z" fill="white"/>
<path d="M675.847 408.562C679.462 415.953 683.139 423.804 684.512 431.988C684.976 434.749 685.564 439.623 682.85 441.401C682.504 441.648 682.091 441.783 681.666 441.787C681.084 441.813 680.501 441.771 679.929 441.661C678.352 441.302 676.844 440.688 675.464 439.845C671.815 437.643 668.605 434.785 665.995 431.415C665.543 430.564 665.345 429.601 665.425 428.64C665.347 427.448 665.367 426.252 665.485 425.064C665.701 422.858 666.26 420.699 667.142 418.665C669.121 414.194 672.707 410.629 677.189 408.676C678.421 408.132 677.289 407.556 676.44 407.932C672.471 409.631 669.108 412.489 666.791 416.132C664.474 419.774 663.311 424.032 663.455 428.346C663.383 429.443 663.493 430.545 663.78 431.606C664.088 432.118 664.461 432.586 664.891 433C665.681 433.933 666.512 434.829 667.384 435.687C668.991 437.283 670.753 438.716 672.644 439.965C675.43 441.787 679.033 443.539 682.443 442.608C686.087 441.608 686.924 438.009 686.791 434.644C686.535 431.068 685.786 427.546 684.566 424.175C682.676 418.649 680.409 413.26 677.779 408.045C677.468 407.409 675.586 408.03 675.847 408.562Z" fill="black"/>
<path d="M687.537 406.223C692.691 406.308 697.821 405.515 702.708 403.878C722.714 438.813 697.908 442.335 676.809 408.302C680.203 406.878 683.856 406.17 687.537 406.223V406.223Z" fill="white"/>
<path d="M687.177 406.831C692.499 406.899 697.796 406.089 702.854 404.431L701.814 404.274C704.713 409.366 707.422 414.821 708.622 420.599C709.222 423.467 709.677 427.298 707.775 429.814C706.275 431.805 703.689 431.614 701.532 430.979C697.554 429.814 694.021 427.137 690.993 424.396C685.821 419.54 681.349 413.991 677.703 407.906L677.211 408.767C680.372 407.467 683.76 406.809 687.177 406.831C687.564 406.831 688.287 406.714 688.445 406.279C688.59 405.879 688.32 405.612 687.896 405.615C683.958 405.586 680.054 406.341 676.412 407.838C676.081 407.979 675.682 408.318 675.919 408.699C679.488 414.639 683.837 420.075 688.85 424.861C692.136 427.893 695.939 430.797 700.281 432.099C703.036 432.925 706.324 432.974 708.62 430.993C711.031 428.914 711.249 425.415 710.935 422.466C710.216 415.724 706.902 409.282 703.598 403.481C703.437 403.199 702.798 403.24 702.557 403.325C697.83 404.891 692.876 405.664 687.896 405.615C687.509 405.615 686.786 405.733 686.628 406.167C686.483 406.565 686.754 406.838 687.177 406.831Z" fill="black"/>
<path d="M721.673 388.594C747.244 425.853 727.08 432.132 702.707 403.878C711.734 400.709 717.18 394.74 721.673 388.594Z" fill="white"/>
<path d="M720.708 388.853C724.697 394.396 728.021 400.389 730.614 406.707C731.88 410.019 733.214 414.081 732.321 417.656C732.103 418.716 731.537 419.673 730.712 420.374C730.404 420.623 730.044 420.801 729.659 420.894C729.188 420.998 728.706 421.038 728.224 421.014C724.618 420.874 721.091 418.83 718.17 416.89C712.736 413.115 707.84 408.621 703.613 403.531L703.059 404.162C707.263 402.676 711.155 400.423 714.538 397.518C717.542 394.843 720.232 391.836 722.558 388.555C722.982 387.977 721.099 388.212 720.79 388.633C718.606 391.714 716.102 394.556 713.321 397.113C710.118 399.96 706.395 402.161 702.356 403.593C702.161 403.663 701.556 403.939 701.802 404.225C705.861 409.086 710.517 413.415 715.66 417.11C718.853 419.316 722.574 421.479 726.519 421.863C729.19 422.123 732.25 421.363 733.647 418.874C735.31 415.908 734.375 411.861 733.454 408.826C731.212 401.441 726.966 394.654 722.64 388.331C722.279 387.808 720.493 388.542 720.708 388.853Z" fill="black"/>
<path d="M739.463 369.846C759.726 412.423 744.938 414.866 721.674 388.594C727.336 380.854 731.506 372.846 739.463 369.846Z" fill="white"/>
<path d="M738.498 370.105C741.694 376.547 744.35 383.243 746.44 390.124C747.48 393.781 748.604 398.009 747.862 401.832C747.714 402.867 747.256 403.832 746.547 404.6C746.426 404.716 746.291 404.816 746.147 404.9C745.937 405.027 746.018 404.971 745.962 405C745.735 405.1 745.837 405.05 745.779 405.067C745.441 405.158 745.09 405.189 744.742 405.158C741.585 404.971 738.509 402.818 736.052 401.02C731.12 397.248 726.602 392.963 722.576 388.236L722.567 388.59C725.181 385.005 727.543 381.229 730.33 377.772C732.912 374.573 735.939 371.696 739.83 370.193C740.101 370.093 740.577 369.826 740.364 369.493C740.164 369.175 739.331 369.423 739.096 369.514C730.464 372.847 725.942 381.533 720.782 388.61C720.736 388.656 720.709 388.719 720.707 388.785C720.705 388.851 720.729 388.915 720.772 388.964C724.617 393.45 728.89 397.552 733.53 401.211C736.289 403.31 739.543 405.584 743.067 406.077C745.591 406.431 748.231 405.547 749.319 403.105C750.744 399.905 749.855 395.706 749.107 392.46C747.277 384.523 743.907 376.923 740.429 369.594C740.143 368.983 738.261 369.607 738.498 370.105Z" fill="black"/>
<path d="M739.463 369.846C741.765 368.991 744.206 368.568 746.663 368.6C754.493 368.6 761.705 373.554 766.268 381.736C768.399 402.77 758.184 399.316 739.463 369.846Z" fill="white"/>
<path d="M739.86 370.302C746.527 367.83 753.829 369.687 759.095 374.257C760.428 375.42 761.643 376.711 762.725 378.11C763.746 379.423 765.169 381.051 765.374 382.735C765.647 384.964 765.675 387.216 765.458 389.451C765.398 390.876 765.02 392.269 764.351 393.529C764.14 393.901 763.84 394.216 763.477 394.444C763.397 394.479 763.315 394.509 763.231 394.535C763.056 394.564 762.878 394.571 762.701 394.556C761.426 394.336 760.229 393.789 759.227 392.969C757.477 391.679 755.866 390.21 754.422 388.585C749.038 382.786 744.591 376.105 740.356 369.452C739.972 368.852 738.102 369.504 738.57 370.24C742.83 376.932 747.304 383.66 752.734 389.475C755.072 391.982 758.373 395.586 762.09 395.763C765.342 395.919 766.82 393.089 767.266 390.282C767.571 387.987 767.615 385.665 767.398 383.36C767.409 382.704 767.342 382.05 767.198 381.41C766.765 380.46 766.214 379.568 765.557 378.756C764.434 377.111 763.142 375.589 761.701 374.215C758.771 371.352 755.089 369.378 751.082 368.524C747.075 367.67 742.908 367.971 739.065 369.391C738.742 369.51 738.326 369.882 738.565 370.24C738.804 370.598 739.545 370.419 739.86 370.302Z" fill="black"/>
<path d="M606.427 445.795C595.727 441.748 585.181 443.406 582.876 449.499C569.654 471.194 560.202 494.589 552.337 521.464C539.913 534.311 526.806 558.356 534.637 563.833C546.801 572.349 584.363 547.267 598.183 519.932C601.202 504.813 612.283 480.741 620.655 465.872C621.061 465.35 621.39 464.772 621.632 464.156C623.936 458.063 617.129 449.843 606.427 445.795Z" fill="white"/>
<path d="M607.002 445.216C601.329 443.11 594.639 441.998 588.745 443.894C586.645 444.488 584.752 445.654 583.278 447.262C582.616 448.179 582.03 449.148 581.526 450.161C580.651 451.608 579.792 453.064 578.947 454.53C572.279 466.204 566.509 478.369 561.686 490.919C559.172 497.397 556.856 503.946 554.739 510.568C553.661 513.922 552.751 517.339 551.627 520.674C551.19 521.974 549.957 522.938 549.059 523.964C548.136 525.02 547.239 526.098 546.37 527.199C542.867 531.595 539.753 536.287 537.062 541.222C534.583 545.49 532.762 550.108 531.662 554.919C531.102 557.803 530.862 561.593 533.212 563.8C535.228 565.691 538.274 566.182 540.932 566.131C549.195 565.973 557.32 561.547 564.098 557.206C573.225 551.329 581.419 544.117 588.407 535.811C591.903 531.716 595.009 527.304 597.682 522.631C598.378 521.594 598.913 520.459 599.27 519.262C599.523 518.058 599.811 516.863 600.123 515.671C600.823 513.014 601.64 510.389 602.523 507.789C606.565 496.235 611.452 484.995 617.144 474.158C618.42 471.679 619.735 469.22 621.089 466.78C622.25 464.695 623.256 463.063 623.001 460.582C622.516 455.869 618.588 451.989 614.938 449.384C612.48 447.665 609.813 446.265 607.003 445.216C606.303 444.947 604.749 445.952 605.85 446.375C610.989 448.352 616.144 451.528 619.211 456.223C620.442 457.956 621.101 460.03 621.097 462.155C620.976 464.499 619.397 466.412 618.306 468.406C612.774 478.517 607.876 488.962 603.642 499.681C601.634 504.667 599.894 509.758 598.432 514.931C597.805 517.216 597.485 519.541 596.346 521.63C595.096 523.918 593.727 526.139 592.246 528.285C586.191 536.957 578.845 544.653 570.464 551.105C563.49 556.539 555.585 561.703 546.965 564.029C542.065 565.352 534.004 565.908 533.299 559.13C532.888 555.184 534.436 550.986 535.942 547.418C538.037 542.587 540.593 537.97 543.575 533.63C545.092 531.38 546.695 529.185 548.397 527.071C549.197 526.075 550.02 525.096 550.868 524.135C551.781 523.306 552.601 522.378 553.311 521.369C553.598 520.647 553.819 519.9 553.971 519.137C554.191 518.398 554.413 517.66 554.637 516.922C555.17 515.168 555.714 513.416 556.27 511.668C557.27 508.519 558.312 505.382 559.396 502.259C563.629 489.906 568.69 477.853 574.545 466.18C576.012 463.29 577.532 460.429 579.106 457.597C580.606 454.907 582.413 452.313 583.789 449.564C584.669 447.615 586.277 446.088 588.269 445.31C590.86 444.357 593.632 443.997 596.381 444.257C599.625 444.498 602.816 445.213 605.853 446.38C606.549 446.635 608.108 445.629 607.002 445.216Z" fill="white"/>
<path d="M581.926 449.679C570.194 468.963 561.42 489.827 554.553 511.293C553.643 514.138 552.763 516.993 551.913 519.858C551.76 520.633 551.454 521.371 551.013 522.026C550.704 522.413 550.328 522.757 549.995 523.126C549.237 523.96 548.495 524.808 547.771 525.672C544.751 529.285 541.999 533.111 539.534 537.123C537.161 540.89 535.136 544.866 533.483 549.001C532.123 552.099 531.384 555.434 531.309 558.817C531.257 559.967 531.517 561.11 532.061 562.124C532.605 563.139 533.413 563.988 534.399 564.582C536.455 565.619 538.758 566.067 541.053 565.875C547.605 565.589 553.998 562.722 559.645 559.59C567.204 555.315 574.188 550.095 580.428 544.055C587.099 537.836 592.839 530.688 597.47 522.831C598.024 521.932 598.528 521.004 598.979 520.05C599.305 519.096 599.55 518.117 599.713 517.123C600.218 515.038 600.808 512.974 601.449 510.925C602.903 506.278 604.612 501.711 606.449 497.201C610.26 487.844 614.566 478.696 619.348 469.796C619.829 468.899 620.316 468.005 620.808 467.114C621.454 466.102 622.045 465.055 622.578 463.978C622.686 463.722 620.878 463.859 620.678 464.336C620.194 465.314 619.657 466.265 619.067 467.184C618.521 468.17 617.981 469.16 617.448 470.154C616.362 472.179 615.302 474.216 614.269 476.266C612.035 480.689 609.911 485.166 607.896 489.695C603.912 498.266 600.642 507.151 598.119 516.259C597.887 517.159 597.669 518.059 597.471 518.959C597.23 519.982 596.837 520.963 596.305 521.869C595.279 523.755 594.163 525.591 592.977 527.381C590.507 531.084 587.775 534.607 584.802 537.921C578.876 544.582 572.152 550.488 564.781 555.505C558.964 559.448 552.442 563.252 545.482 564.703C541.332 565.565 534.891 565.541 533.534 560.465C532.751 557.54 533.521 554.282 534.393 551.467C535.676 547.536 537.366 543.75 539.433 540.169C541.682 536.154 544.213 532.303 547.008 528.646C548.359 526.873 549.769 525.146 551.251 523.481C551.987 522.804 552.668 522.068 553.286 521.281C553.561 520.637 553.76 519.963 553.879 519.273C554.121 518.46 554.365 517.648 554.612 516.835C560.98 495.874 568.981 475.356 579.762 456.249C581.076 453.916 582.431 451.607 583.825 449.32C583.925 449.152 582.21 449.209 581.925 449.679H581.926Z" fill="black"/>
<path d="M804.666 771.69C809.779 766.76 813.769 760.785 816.362 754.173C818.955 747.561 820.09 740.467 819.689 733.376C819.652 732.77 817.712 733.163 817.757 733.894C818.149 740.827 817.045 747.763 814.519 754.232C811.994 760.701 808.106 766.551 803.121 771.385C802.321 772.155 804.213 772.124 804.666 771.685V771.69Z" fill="black"/>
<path d="M815.09 753.36C819.978 757.099 825.773 759.471 831.88 760.232C837.987 760.993 844.187 760.117 849.844 757.692C851.082 757.157 849.944 756.601 849.099 756.967C843.827 759.162 838.066 759.916 832.406 759.153C826.746 758.39 821.391 756.137 816.889 752.624C816.379 752.224 814.604 752.979 815.089 753.36H815.09Z" fill="black"/>
<path d="M690.092 324.728C697.553 324.728 703.601 318.681 703.601 311.221C703.601 303.762 697.553 297.714 690.092 297.714C682.63 297.714 676.582 303.762 676.582 311.221C676.582 318.681 682.63 324.728 690.092 324.728Z" fill="white"/>
<path d="M580.584 297.715C588.045 297.715 594.093 291.668 594.093 284.208C594.093 276.748 588.045 270.701 580.584 270.701C573.123 270.701 567.074 276.748 567.074 284.208C567.074 291.668 573.123 297.715 580.584 297.715Z" fill="white"/>
<path d="M720.593 877.509C720.465 877.4 721.467 876.02 722.931 873.934C724.395 871.848 726.262 869.01 727.993 866.083C729.687 863.132 731.278 860.116 732.346 857.762C733.438 855.419 734.093 853.781 734.153 853.689C734.179 853.583 734.932 851.99 735.902 849.596C736.901 847.211 738.019 843.998 739.024 840.746C739.988 837.488 740.793 834.191 741.324 831.699C741.855 829.208 742.182 827.536 742.349 827.555C742.49 827.57 742.455 829.28 742.188 831.839C741.829 834.975 741.286 838.086 740.562 841.158C739.816 844.261 738.907 847.323 737.84 850.331C736.956 852.82 736.241 854.478 736.217 854.587C736.156 854.681 735.426 856.334 734.207 858.678C732.729 861.51 731.106 864.263 729.343 866.927C727.585 869.551 725.675 872.07 723.623 874.471C721.932 876.411 720.702 877.602 720.593 877.509Z" fill="black"/>
<path d="M744.064 860.448C744.209 860.465 744.216 861.67 744.053 863.472C743.828 865.681 743.468 867.875 742.975 870.04C742.469 872.229 741.849 874.391 741.118 876.515C740.512 878.273 740.018 879.448 740.004 879.524C739.961 879.59 739.442 880.75 738.577 882.395C737.531 884.382 736.382 886.313 735.136 888.181C733.897 890.022 732.547 891.786 731.093 893.464C729.893 894.816 729.011 895.636 728.899 895.543C728.787 895.45 729.424 894.431 730.399 892.936C731.374 891.44 732.62 889.42 733.783 887.349C734.922 885.263 735.995 883.14 736.717 881.487C737.456 879.843 737.9 878.696 737.942 878.632C737.961 878.557 738.491 877.447 739.184 875.782C739.893 874.121 740.704 871.882 741.444 869.623C742.156 867.355 742.769 865.06 743.194 863.324C743.619 861.589 743.901 860.428 744.064 860.448Z" fill="black"/>
<path d="M935.778 855.197C935.612 855.197 935.508 853.772 935.341 851.65C935.174 849.529 934.886 846.709 934.479 843.901C934.037 841.101 933.506 838.302 932.989 836.211C932.489 834.111 932.08 832.701 932.072 832.611C932.035 832.528 931.719 831.093 931.148 829.012C930.597 826.929 929.721 824.225 928.763 821.556C927.773 818.898 926.673 816.289 925.801 814.349C924.929 812.41 924.339 811.113 924.482 811.03C924.607 810.957 925.455 812.108 926.576 813.943C927.928 816.209 929.15 818.549 930.235 820.954C931.403 823.596 932.456 826.309 933.135 828.41C933.83 830.505 934.217 831.964 934.255 832.05C934.264 832.143 934.624 833.61 935.021 835.783C935.438 837.952 935.821 840.839 936.062 843.72C936.265 846.352 936.318 848.993 936.219 851.631C936.114 853.784 935.923 855.202 935.778 855.197Z" fill="black"/>
<path d="M949.705 868.603C949.539 868.56 949.752 867.212 950.005 865.204C950.305 862.747 950.465 860.275 950.483 857.8C950.47 855.317 950.297 852.838 949.964 850.378C949.685 848.351 949.385 846.987 949.391 846.9C949.354 846.82 949.166 845.437 948.726 843.441C948.188 841.019 947.494 838.634 946.647 836.301C945.775 833.987 944.771 831.724 943.641 829.524C942.708 827.724 942.041 826.535 942.183 826.438C942.297 826.357 943.209 827.382 944.393 829.075C945.817 831.175 947.063 833.39 948.118 835.698C949.17 838.042 950.045 840.463 950.737 842.938C951.308 844.987 951.569 846.422 951.606 846.505C951.606 846.595 951.851 848.033 952.025 850.154C952.232 852.718 952.248 855.293 952.073 857.859C951.88 860.39 951.476 862.901 950.865 865.366C950.341 867.361 949.839 868.64 949.705 868.603Z" fill="black"/>
<path d="M715.996 171.328C715.107 172.469 714.269 173.626 713.485 174.796C713.192 175.233 713.308 175.823 713.744 176.115C714.18 176.407 714.771 176.289 715.063 175.854C717.558 172.131 720.618 168.54 724.158 165.179C732.487 157.273 742.816 153.241 754.859 153.195C764.768 153.158 773.075 155.958 776.422 157.619C776.892 157.852 777.462 157.659 777.696 157.189C777.93 156.719 777.739 156.149 777.269 155.915C772.927 153.761 764.451 151.257 754.855 151.294C749.212 151.315 743.822 152.215 738.836 153.969C732.904 156.055 727.526 159.363 722.851 163.801C720.319 166.204 718.024 168.725 715.996 171.328Z" fill="#1D1D1B"/>
<defs>
<linearGradient id="paint0_linear" x1="455.221" y1="521.506" x2="554.786" y2="521.506" gradientUnits="userSpaceOnUse">
<stop offset="0.385417" stop-color="#6633FF"/>
<stop offset="0.75" stop-color="#3366FF"/>
<stop offset="1" stop-color="#0099FF"/>
</linearGradient>
<linearGradient id="paint1_linear" x1="466.982" y1="512.153" x2="705.544" y2="512.153" gradientUnits="userSpaceOnUse">
<stop offset="0.385417" stop-color="#6633FF"/>
<stop offset="0.75" stop-color="#3366FF"/>
<stop offset="1" stop-color="#0099FF"/>
</linearGradient>
<linearGradient id="paint2_linear" x1="635.674" y1="148.349" x2="808.817" y2="148.349" gradientUnits="userSpaceOnUse">
<stop offset="0.385417" stop-color="#6633FF"/>
<stop offset="0.75" stop-color="#3366FF"/>
<stop offset="1" stop-color="#0099FF"/>
</linearGradient>
</defs>
</svg>
