<svg width="2826" height="1871" viewBox="0 0 2826 1871" fill="none" xmlns="http://www.w3.org/2000/svg">
<g clip-path="url(#clip0)">
<path d="M2826 8.27341e-07L0 0L-5.51268e-07 1883L2826 1883L2826 8.27341e-07Z" fill="url(#paint0_linear)"/>
<path d="M145.685 1306.18C-329.154 1393 -916.974 1317.9 -922.358 1316.41L-916.638 1306.73C-910.438 1306.83 -332.679 1381.31 130.465 1296.62C523.436 1224.77 759.672 1079.18 988.777 938.602C1376.74 698.657 1741.78 472.77 2822.87 595.851L2818.67 606.488C1756.89 486.045 1395.82 708.738 1014.17 945.062C782.726 1086.07 545.674 1233.04 145.685 1306.18Z" fill="url(#paint1_linear)"/>
<path d="M197.036 1338.13C-277.946 1424.86 -866.077 1349.73 -871.464 1348.24L-865.749 1338.57C-859.546 1338.67 -281.48 1413.17 181.802 1328.57C574.891 1256.8 811.121 1111.3 1040.22 970.803C1428.17 731.004 1793.21 505.255 2874.85 628.399L2870.66 639.03C1806.81 517.571 1447.27 741.083 1063.29 977.69C834.19 1118.19 597.144 1265.07 197.036 1338.13Z" fill="url(#paint2_linear)"/>
<g opacity="0.8">
<path opacity="0.95" d="M247.684 1370.01C-227.297 1456.74 -813.089 1381.18 -820.815 1380.12L-815.1 1370.45C-808.897 1370.55 -230.832 1445.05 232.451 1360.46C625.539 1288.68 861.769 1143.18 1090.87 1002.69C1476.48 763.314 1843.86 537.137 2925.5 660.281L2921.31 670.913C1858.98 550.408 1497.92 772.965 1116.28 1009.14C886.362 1151.02 647.792 1296.95 247.684 1370.01Z" fill="url(#paint3_linear)"/>
</g>
<g opacity="0.6">
<path opacity="0.9" d="M298.333 1401.89C-176.649 1488.62 -764.78 1413.49 -770.167 1412.01L-764.452 1402.33C-758.249 1402.43 -180.184 1476.94 283.099 1392.34C676.187 1320.56 912.417 1175.06 1141.52 1034.57C1529.47 794.769 1894.51 569.02 2976.15 692.164L2971.96 702.796C1909.63 582.291 1548.56 804.848 1166.93 1041.03C937.011 1182.91 698.441 1328.83 298.333 1401.89Z" fill="url(#paint4_linear)"/>
</g>
<g opacity="0.5">
<path opacity="0.88" d="M350.389 1434.66C-124.593 1521.39 -712.725 1446.26 -718.111 1444.78L-712.396 1435.1C-706.193 1435.2 -128.128 1509.7 335.155 1425.11C728.243 1353.33 964.473 1207.83 1193.57 1067.34C1581.52 827.537 1946.56 601.788 3028.21 724.932L3024.01 735.564C1961.69 615.059 1600.62 837.616 1218.98 1073.8C987.543 1214.72 750.496 1361.6 350.389 1434.66Z" fill="url(#paint5_linear)"/>
</g>
<g opacity="0.4">
<path opacity="0.85" d="M401.037 1466.54C-73.9448 1553.27 -662.076 1478.14 -667.463 1476.66L-661.748 1466.98C-655.545 1467.08 -77.4796 1541.59 385.803 1456.99C778.892 1385.21 1015.12 1239.71 1244.22 1099.22C1629.83 859.847 1997.21 633.67 3078.85 756.814L3074.66 767.446C2012.33 646.941 1651.27 869.498 1269.63 1105.68C1038.19 1246.6 801.145 1393.48 401.037 1466.54Z" fill="url(#paint6_linear)"/>
</g>
<g opacity="0.3">
<path opacity="0.85" d="M451.685 1498.42C-23.2971 1585.16 -611.429 1510.02 -616.815 1508.54L-611.1 1498.86C-604.897 1498.96 -26.8318 1573.47 436.451 1488.87C829.539 1417.09 1065.77 1271.6 1294.87 1131.1C1682.82 891.302 2047.86 665.553 3129.5 788.697L3125.31 799.328C2062.98 678.824 1701.92 901.381 1320.28 1137.56C1090.36 1279.44 851.793 1425.36 451.685 1498.42Z" fill="url(#paint7_linear)"/>
</g>
<path d="M484.192 1536.11C9.35248 1622.93 -578.468 1547.83 -583.851 1546.35L-578.131 1536.67C-571.931 1536.77 5.82796 1611.24 468.972 1526.56C861.943 1454.7 1098.18 1309.12 1327.28 1168.54C1715.24 928.59 2080.29 702.703 3161.37 825.784L3157.18 836.421C2095.4 715.979 1734.32 938.672 1352.68 1175C1121.23 1316.01 884.18 1462.98 484.192 1536.11Z" fill="url(#paint8_linear)"/>
<path d="M535.543 1568.06C60.5611 1654.79 -527.57 1579.66 -532.957 1578.18L-527.242 1568.5C-521.039 1568.6 57.0264 1643.1 520.309 1558.51C913.398 1486.73 1149.63 1341.23 1378.73 1200.74C1766.68 960.938 2131.72 735.189 3213.36 858.333L3209.17 868.964C2145.32 747.504 1785.77 971.017 1401.8 1207.62C1172.7 1348.12 935.651 1495 535.543 1568.06Z" fill="url(#paint9_linear)"/>
<g opacity="0.8">
<path opacity="0.95" d="M586.191 1599.94C111.21 1686.67 -474.582 1611.11 -482.308 1610.06L-476.593 1600.38C-470.39 1600.48 107.675 1674.99 570.957 1590.39C964.046 1518.61 1200.28 1373.12 1429.38 1232.62C1814.99 993.247 2182.36 767.071 3264.01 890.215L3259.82 900.847C2197.49 780.342 1836.42 1002.9 1454.79 1239.08C1224.87 1380.96 986.299 1526.88 586.191 1599.94Z" fill="url(#paint10_linear)"/>
</g>
<g opacity="0.6">
<path opacity="0.9" d="M636.84 1631.82C161.858 1718.56 -426.273 1643.42 -431.66 1641.94L-425.945 1632.26C-419.742 1632.37 158.323 1706.87 621.606 1622.27C1014.69 1550.5 1250.92 1405 1480.03 1264.5C1867.97 1024.7 2233.01 798.954 3314.66 922.098L3310.47 932.729C2248.14 812.225 1887.07 1034.78 1505.43 1270.96C1275.52 1412.84 1036.95 1558.76 636.84 1631.82Z" fill="url(#paint11_linear)"/>
</g>
<g opacity="0.5">
<path opacity="0.88" d="M688.894 1664.59C213.913 1751.32 -374.219 1676.19 -379.605 1674.71L-373.89 1665.03C-367.687 1665.13 210.378 1739.64 673.661 1655.04C1066.75 1583.26 1302.98 1437.77 1532.08 1297.27C1920.03 1057.47 2285.07 831.722 3366.71 954.866L3362.52 965.497C2300.19 844.993 1939.13 1067.55 1557.49 1303.73C1326.05 1444.65 1089 1591.53 688.894 1664.59Z" fill="url(#paint12_linear)"/>
</g>
<g opacity="0.4">
<path opacity="0.85" d="M739.543 1696.48C264.561 1783.21 -323.57 1708.07 -328.957 1706.59L-323.242 1696.92C-317.039 1697.02 261.026 1771.52 724.309 1686.92C1117.4 1615.15 1353.63 1469.65 1582.73 1329.15C1968.34 1089.78 2335.72 863.604 3417.36 986.748L3413.17 997.38C2350.84 876.875 1989.77 1099.43 1608.14 1335.61C1376.7 1476.54 1139.65 1623.42 739.543 1696.48Z" fill="url(#paint13_linear)"/>
</g>
<g opacity="0.3">
<path opacity="0.85" d="M790.192 1728.36C315.21 1815.09 -272.922 1739.96 -278.308 1738.47L-272.593 1728.8C-266.39 1728.9 311.675 1803.4 774.958 1718.81C1168.05 1647.03 1404.28 1501.53 1633.38 1361.03C2021.33 1121.24 2386.36 895.487 3468.01 1018.63L3463.82 1029.26C2401.49 908.758 2040.42 1131.31 1658.79 1367.49C1428.87 1509.37 1190.3 1655.3 790.192 1728.36Z" fill="url(#paint14_linear)"/>
</g>
<path d="M870.534 1758.55C395.694 1845.37 -192.126 1770.27 -197.509 1768.79L-191.789 1759.1C-185.589 1759.2 392.17 1833.68 855.314 1749C1248.28 1677.14 1484.52 1531.56 1713.63 1390.98C2101.58 1151.03 2466.63 925.143 3547.71 1048.22L3543.52 1058.86C2481.74 938.418 2120.67 1161.11 1739.02 1397.44C1507.57 1538.45 1270.52 1685.42 870.534 1758.55Z" fill="url(#paint15_linear)"/>
<path d="M921.885 1790.5C446.903 1877.23 -141.229 1802.1 -146.615 1800.62L-140.9 1790.94C-134.697 1791.04 443.368 1865.54 906.651 1780.95C1299.74 1709.17 1535.97 1563.67 1765.07 1423.18C2153.02 1183.38 2518.06 957.628 3599.7 1080.77L3595.51 1091.4C2531.66 969.944 2172.12 1193.46 1788.14 1430.06C1559.04 1570.56 1321.99 1717.44 921.885 1790.5Z" fill="url(#paint16_linear)"/>
<g opacity="0.8">
<path opacity="0.95" d="M972.533 1822.38C497.551 1909.11 -88.2402 1833.55 -95.9666 1832.5L-90.2516 1822.82C-84.0486 1822.92 494.017 1897.43 957.299 1812.83C1350.39 1741.05 1586.62 1595.55 1815.72 1455.06C2201.33 1215.69 2568.71 989.511 3650.35 1112.65L3646.16 1123.29C2583.83 1002.78 2222.76 1225.34 1841.13 1461.52C1611.21 1603.4 1372.64 1749.32 972.533 1822.38Z" fill="url(#paint17_linear)"/>
</g>
<g opacity="0.6">
<path opacity="0.9" d="M1023.18 1854.26C548.2 1941 -39.9317 1865.86 -45.3183 1864.38L-39.6032 1854.7C-33.4002 1854.8 544.665 1929.31 1007.95 1844.71C1401.04 1772.94 1637.27 1627.44 1866.37 1486.94C2254.32 1247.14 2619.35 1021.39 3701 1144.54L3696.81 1155.17C2634.48 1034.66 2273.41 1257.22 1891.78 1493.4C1661.86 1635.28 1423.29 1781.2 1023.18 1854.26Z" fill="url(#paint18_linear)"/>
</g>
<g opacity="0.5">
<path opacity="0.88" d="M1075.24 1887.03C600.255 1973.76 12.124 1898.63 6.7374 1897.15L12.4524 1887.47C18.6554 1887.57 596.721 1962.08 1060 1877.48C1453.09 1805.7 1689.32 1660.21 1918.42 1519.71C2306.37 1279.91 2671.41 1054.16 3753.05 1177.31L3748.86 1187.94C2686.53 1067.43 2325.47 1289.99 1943.83 1526.17C1712.39 1667.09 1475.35 1813.97 1075.24 1887.03Z" fill="url(#paint19_linear)"/>
</g>
<g opacity="0.4">
<path opacity="0.85" d="M1125.89 1918.91C650.903 2005.65 62.7719 1930.51 57.3853 1929.03L63.1004 1919.35C69.3034 1919.46 647.369 1993.96 1110.65 1909.36C1503.74 1837.59 1739.97 1692.09 1969.07 1551.59C2354.68 1312.22 2722.06 1086.04 3803.7 1209.19L3799.51 1219.82C2737.18 1099.31 2376.12 1321.87 1994.48 1558.05C1763.04 1698.97 1525.99 1845.86 1125.89 1918.91Z" fill="url(#paint20_linear)"/>
</g>
<g opacity="0.3">
<path opacity="0.85" d="M1176.53 1950.8C701.552 2037.53 113.42 1962.4 108.033 1960.91L113.748 1951.24C119.951 1951.34 698.017 2025.84 1161.3 1941.25C1554.39 1869.47 1790.62 1723.97 2019.72 1583.47C2407.67 1343.68 2772.71 1117.93 3854.35 1241.07L3850.16 1251.7C2787.83 1131.2 2426.76 1353.75 2045.13 1589.93C1815.21 1731.81 1576.64 1877.74 1176.53 1950.8Z" fill="url(#paint21_linear)"/>
</g>
<path d="M1232.35 1991.17C757.512 2077.99 169.692 2002.89 164.309 2001.4L170.029 1991.72C176.229 1991.82 753.988 2066.3 1217.13 1981.62C1610.1 1909.76 1846.34 1764.18 2075.45 1623.6C2463.4 1383.65 2828.45 1157.76 3909.54 1280.84L3905.34 1291.48C2843.56 1171.04 2482.49 1393.73 2100.84 1630.05C1869.39 1771.06 1632.34 1918.03 1232.35 1991.17Z" fill="url(#paint22_linear)"/>
<path d="M1283.7 2023.12C808.721 2109.85 220.59 2034.72 215.203 2033.23L220.918 2023.56C227.121 2023.66 805.187 2098.16 1268.47 2013.57C1661.56 1941.79 1897.79 1796.29 2126.89 1655.79C2514.84 1416 2879.88 1190.25 3961.52 1313.39L3957.33 1324.02C2893.48 1202.56 2533.93 1426.07 2149.96 1662.68C1920.86 1803.18 1683.81 1950.06 1283.7 2023.12Z" fill="url(#paint23_linear)"/>
<g opacity="0.8">
<path opacity="0.95" d="M1334.35 2055C859.369 2141.73 273.578 2066.17 265.851 2065.12L271.566 2055.44C277.769 2055.54 855.834 2130.04 1319.12 2045.45C1712.21 1973.67 1948.44 1828.17 2177.54 1687.68C2563.14 1448.31 2930.52 1222.13 4012.17 1345.27L4007.98 1355.9C2945.65 1235.4 2584.58 1457.96 2202.95 1694.14C1973.03 1836.02 1734.46 1981.94 1334.35 2055Z" fill="url(#paint24_linear)"/>
</g>
<g opacity="0.6">
<path opacity="0.9" d="M1385 2086.88C910.018 2173.61 321.887 2098.48 316.5 2097L322.215 2087.32C328.418 2087.42 906.483 2161.93 1369.77 2077.33C1762.85 2005.55 1999.08 1860.06 2228.19 1719.56C2616.13 1479.76 2981.17 1254.01 4062.82 1377.16L4058.63 1387.79C2996.3 1267.28 2635.23 1489.84 2253.6 1726.02C2023.68 1867.9 1785.11 2013.82 1385 2086.88Z" fill="url(#paint25_linear)"/>
</g>
<g opacity="0.5">
<path opacity="0.88" d="M1437.06 2119.65C962.073 2206.38 373.942 2131.25 368.555 2129.77L374.27 2120.09C380.473 2120.19 958.539 2194.7 1421.82 2110.1C1814.91 2038.32 2051.14 1892.82 2280.24 1752.33C2668.19 1512.53 3033.23 1286.78 4114.87 1409.92L4110.68 1420.56C3048.35 1300.05 2687.29 1522.61 2305.65 1758.79C2074.21 1899.71 1837.16 2046.59 1437.06 2119.65Z" fill="url(#paint26_linear)"/>
</g>
<g opacity="0.4">
<path opacity="0.85" d="M1487.7 2151.53C1012.72 2238.27 424.59 2163.13 419.204 2161.65L424.919 2151.97C431.122 2152.07 1009.19 2226.58 1472.47 2141.98C1865.56 2070.2 2101.79 1924.71 2330.89 1784.21C2716.5 1544.84 3083.88 1318.66 4165.52 1441.81L4161.33 1452.44C3099 1331.93 2737.93 1554.49 2356.3 1790.67C2124.86 1931.59 1887.81 2078.47 1487.7 2151.53Z" fill="url(#paint27_linear)"/>
</g>
<g opacity="0.3">
<path opacity="0.85" d="M1538.35 2183.42C1063.37 2270.15 475.238 2195.02 469.852 2193.53L475.567 2183.86C481.77 2183.96 1059.84 2258.46 1523.12 2173.86C1916.21 2102.09 2152.44 1956.59 2381.54 1816.09C2769.49 1576.29 3134.52 1350.54 4216.17 1473.69L4211.98 1484.32C3149.65 1363.82 2788.58 1586.37 2406.95 1822.55C2177.03 1964.43 1938.46 2110.36 1538.35 2183.42Z" fill="url(#paint28_linear)"/>
</g>
<path d="M1683.11 2171.04C1208.27 2257.86 620.452 2182.76 615.069 2181.28L620.789 2171.59C626.989 2171.69 1204.75 2246.17 1667.89 2161.49C2060.86 2089.63 2297.1 1944.05 2526.21 1803.47C2914.17 1563.52 3279.21 1337.63 4360.3 1460.72L4356.1 1471.35C3294.32 1350.91 2933.25 1573.6 2551.6 1809.93C2320.15 1950.94 2083.1 2097.91 1683.11 2171.04Z" fill="url(#paint29_linear)"/>
<path d="M1734.46 2202.99C1259.48 2289.72 671.35 2214.59 665.964 2213.1L671.679 2203.43C677.882 2203.53 1255.95 2278.03 1719.23 2193.44C2112.32 2121.66 2348.55 1976.16 2577.65 1835.67C2965.6 1595.87 3330.64 1370.12 4412.28 1493.26L4408.09 1503.89C3344.24 1382.43 2984.69 1605.95 2600.72 1842.55C2371.62 1983.05 2134.57 2129.93 1734.46 2202.99Z" fill="url(#paint30_linear)"/>
<g opacity="0.8">
<path opacity="0.95" d="M1785.11 2234.87C1310.13 2321.6 724.338 2246.04 716.612 2244.99L722.327 2235.31C728.53 2235.41 1306.59 2309.92 1769.88 2225.32C2162.97 2153.54 2399.2 2008.04 2628.3 1867.55C3013.91 1628.18 3381.28 1402 4462.93 1525.14L4458.74 1535.78C3396.41 1415.27 3035.34 1637.83 2653.71 1874.01C2423.79 2015.89 2185.22 2161.81 1785.11 2234.87Z" fill="url(#paint31_linear)"/>
</g>
<g opacity="0.6">
<path opacity="0.9" d="M1835.76 2266.75C1360.78 2353.49 772.647 2278.35 767.26 2276.87L772.975 2267.19C779.178 2267.29 1357.24 2341.8 1820.53 2257.2C2213.61 2185.42 2449.84 2039.93 2678.95 1899.43C3066.89 1659.63 3431.93 1433.88 4513.58 1557.03L4509.39 1567.66C3447.06 1447.15 3085.99 1669.71 2704.36 1905.89C2474.44 2047.77 2235.87 2193.69 1835.76 2266.75Z" fill="url(#paint32_linear)"/>
</g>
<g opacity="0.5">
<path opacity="0.88" d="M1887.82 2299.52C1412.83 2386.25 824.702 2311.12 819.316 2309.64L825.031 2299.96C831.234 2300.06 1409.3 2374.57 1872.58 2289.97C2265.67 2218.19 2501.9 2072.69 2731 1932.2C3118.95 1692.4 3483.99 1466.65 4565.63 1589.79L4561.44 1600.43C3499.11 1479.92 3138.05 1702.48 2756.41 1938.66C2524.97 2079.58 2287.92 2226.46 1887.82 2299.52Z" fill="url(#paint33_linear)"/>
</g>
<g opacity="0.4">
<path opacity="0.85" d="M1938.46 2331.4C1463.48 2418.14 875.351 2343 869.964 2341.52L875.679 2331.84C881.882 2331.94 1459.95 2406.45 1923.23 2321.85C2316.32 2250.08 2552.55 2104.58 2781.65 1964.08C3167.26 1724.71 3534.64 1498.53 4616.28 1621.68L4612.09 1632.31C3549.76 1511.8 3188.7 1734.36 2807.06 1970.54C2575.62 2111.46 2338.57 2258.34 1938.46 2331.4Z" fill="url(#paint34_linear)"/>
</g>
<g opacity="0.3">
<path opacity="0.85" d="M1989.11 2363.29C1514.13 2450.02 925.998 2374.89 920.612 2373.4L926.327 2363.73C932.53 2363.83 1510.59 2438.33 1973.88 2353.74C2366.97 2281.96 2603.2 2136.46 2832.3 1995.96C3220.25 1756.16 3585.28 1530.42 4666.93 1653.56L4662.74 1664.19C3600.41 1543.69 3239.34 1766.24 2857.71 2002.42C2627.79 2144.3 2389.22 2290.23 1989.11 2363.29Z" fill="url(#paint35_linear)"/>
</g>
</g>
<defs>
<linearGradient id="paint0_linear" x1="-136.884" y1="941.527" x2="2963.05" y2="941.527" gradientUnits="userSpaceOnUse">
<stop offset="0.0633695" stop-color="#292929"/>
<stop offset="1"/>
</linearGradient>
<linearGradient id="paint1_linear" x1="-1194.75" y1="1145.43" x2="257.412" y2="-1168.05" gradientUnits="userSpaceOnUse">
<stop stop-color="#8F6AFA"/>
<stop offset="0.447917" stop-color="#375CDC"/>
<stop offset="1" stop-color="#0099EE"/>
</linearGradient>
<linearGradient id="paint2_linear" x1="-1144.1" y1="1177.31" x2="306.016" y2="-1135.61" gradientUnits="userSpaceOnUse">
<stop stop-color="#8F6AFA"/>
<stop offset="0.447917" stop-color="#375CDC"/>
<stop offset="1" stop-color="#0099EE"/>
</linearGradient>
<linearGradient id="paint3_linear" x1="-1093.45" y1="1209.19" x2="356.664" y2="-1103.72" gradientUnits="userSpaceOnUse">
<stop stop-color="#8F6AFA"/>
<stop offset="0.447917" stop-color="#375CDC"/>
<stop offset="1" stop-color="#0099EE"/>
</linearGradient>
<linearGradient id="paint4_linear" x1="-1042.81" y1="1241.07" x2="407.313" y2="-1071.84" gradientUnits="userSpaceOnUse">
<stop stop-color="#8F6AFA"/>
<stop offset="0.447917" stop-color="#375CDC"/>
<stop offset="1" stop-color="#0099EE"/>
</linearGradient>
<linearGradient id="paint5_linear" x1="-990.75" y1="1273.84" x2="459.369" y2="-1039.07" gradientUnits="userSpaceOnUse">
<stop stop-color="#8F6AFA"/>
<stop offset="0.447917" stop-color="#375CDC"/>
<stop offset="1" stop-color="#0099EE"/>
</linearGradient>
<linearGradient id="paint6_linear" x1="-940.102" y1="1305.72" x2="510.017" y2="-1007.19" gradientUnits="userSpaceOnUse">
<stop stop-color="#8F6AFA"/>
<stop offset="0.447917" stop-color="#375CDC"/>
<stop offset="1" stop-color="#0099EE"/>
</linearGradient>
<linearGradient id="paint7_linear" x1="-889.454" y1="1337.61" x2="560.664" y2="-975.309" gradientUnits="userSpaceOnUse">
<stop stop-color="#8F6AFA"/>
<stop offset="0.447917" stop-color="#375CDC"/>
<stop offset="1" stop-color="#0099EE"/>
</linearGradient>
<linearGradient id="paint8_linear" x1="-856.244" y1="1375.37" x2="595.919" y2="-938.113" gradientUnits="userSpaceOnUse">
<stop stop-color="#8F6AFA"/>
<stop offset="0.447917" stop-color="#375CDC"/>
<stop offset="1" stop-color="#0099EE"/>
</linearGradient>
<linearGradient id="paint9_linear" x1="-805.596" y1="1407.24" x2="644.523" y2="-905.674" gradientUnits="userSpaceOnUse">
<stop stop-color="#8F6AFA"/>
<stop offset="0.447917" stop-color="#375CDC"/>
<stop offset="1" stop-color="#0099EE"/>
</linearGradient>
<linearGradient id="paint10_linear" x1="-754.947" y1="1439.12" x2="695.171" y2="-873.791" gradientUnits="userSpaceOnUse">
<stop stop-color="#8F6AFA"/>
<stop offset="0.447917" stop-color="#375CDC"/>
<stop offset="1" stop-color="#0099EE"/>
</linearGradient>
<linearGradient id="paint11_linear" x1="-704.299" y1="1471.01" x2="745.82" y2="-841.909" gradientUnits="userSpaceOnUse">
<stop stop-color="#8F6AFA"/>
<stop offset="0.447917" stop-color="#375CDC"/>
<stop offset="1" stop-color="#0099EE"/>
</linearGradient>
<linearGradient id="paint12_linear" x1="-652.244" y1="1503.77" x2="797.875" y2="-809.14" gradientUnits="userSpaceOnUse">
<stop stop-color="#8F6AFA"/>
<stop offset="0.447917" stop-color="#375CDC"/>
<stop offset="1" stop-color="#0099EE"/>
</linearGradient>
<linearGradient id="paint13_linear" x1="-601.596" y1="1535.66" x2="848.523" y2="-777.258" gradientUnits="userSpaceOnUse">
<stop stop-color="#8F6AFA"/>
<stop offset="0.447917" stop-color="#375CDC"/>
<stop offset="1" stop-color="#0099EE"/>
</linearGradient>
<linearGradient id="paint14_linear" x1="-550.947" y1="1567.54" x2="899.171" y2="-745.376" gradientUnits="userSpaceOnUse">
<stop stop-color="#8F6AFA"/>
<stop offset="0.447917" stop-color="#375CDC"/>
<stop offset="1" stop-color="#0099EE"/>
</linearGradient>
<linearGradient id="paint15_linear" x1="-469.902" y1="1597.81" x2="982.261" y2="-715.674" gradientUnits="userSpaceOnUse">
<stop stop-color="#8F6AFA"/>
<stop offset="0.447917" stop-color="#375CDC"/>
<stop offset="1" stop-color="#0099EE"/>
</linearGradient>
<linearGradient id="paint16_linear" x1="-419.254" y1="1629.68" x2="1030.86" y2="-683.234" gradientUnits="userSpaceOnUse">
<stop stop-color="#8F6AFA"/>
<stop offset="0.447917" stop-color="#375CDC"/>
<stop offset="1" stop-color="#0099EE"/>
</linearGradient>
<linearGradient id="paint17_linear" x1="-368.605" y1="1661.56" x2="1081.51" y2="-651.351" gradientUnits="userSpaceOnUse">
<stop stop-color="#8F6AFA"/>
<stop offset="0.447917" stop-color="#375CDC"/>
<stop offset="1" stop-color="#0099EE"/>
</linearGradient>
<linearGradient id="paint18_linear" x1="-317.957" y1="1693.45" x2="1132.16" y2="-619.469" gradientUnits="userSpaceOnUse">
<stop stop-color="#8F6AFA"/>
<stop offset="0.447917" stop-color="#375CDC"/>
<stop offset="1" stop-color="#0099EE"/>
</linearGradient>
<linearGradient id="paint19_linear" x1="-265.901" y1="1726.21" x2="1184.22" y2="-586.701" gradientUnits="userSpaceOnUse">
<stop stop-color="#8F6AFA"/>
<stop offset="0.447917" stop-color="#375CDC"/>
<stop offset="1" stop-color="#0099EE"/>
</linearGradient>
<linearGradient id="paint20_linear" x1="-215.253" y1="1758.1" x2="1234.87" y2="-554.819" gradientUnits="userSpaceOnUse">
<stop stop-color="#8F6AFA"/>
<stop offset="0.447917" stop-color="#375CDC"/>
<stop offset="1" stop-color="#0099EE"/>
</linearGradient>
<linearGradient id="paint21_linear" x1="-164.605" y1="1789.98" x2="1285.51" y2="-522.936" gradientUnits="userSpaceOnUse">
<stop stop-color="#8F6AFA"/>
<stop offset="0.447917" stop-color="#375CDC"/>
<stop offset="1" stop-color="#0099EE"/>
</linearGradient>
<linearGradient id="paint22_linear" x1="-108.084" y1="1830.42" x2="1344.08" y2="-483.056" gradientUnits="userSpaceOnUse">
<stop stop-color="#8F6AFA"/>
<stop offset="0.447917" stop-color="#375CDC"/>
<stop offset="1" stop-color="#0099EE"/>
</linearGradient>
<linearGradient id="paint23_linear" x1="-57.4355" y1="1862.3" x2="1392.68" y2="-450.616" gradientUnits="userSpaceOnUse">
<stop stop-color="#8F6AFA"/>
<stop offset="0.447917" stop-color="#375CDC"/>
<stop offset="1" stop-color="#0099EE"/>
</linearGradient>
<linearGradient id="paint24_linear" x1="-6.7876" y1="1894.18" x2="1443.33" y2="-418.733" gradientUnits="userSpaceOnUse">
<stop stop-color="#8F6AFA"/>
<stop offset="0.447917" stop-color="#375CDC"/>
<stop offset="1" stop-color="#0099EE"/>
</linearGradient>
<linearGradient id="paint25_linear" x1="43.8613" y1="1926.06" x2="1493.98" y2="-386.851" gradientUnits="userSpaceOnUse">
<stop stop-color="#8F6AFA"/>
<stop offset="0.447917" stop-color="#375CDC"/>
<stop offset="1" stop-color="#0099EE"/>
</linearGradient>
<linearGradient id="paint26_linear" x1="95.9165" y1="1958.83" x2="1546.04" y2="-354.082" gradientUnits="userSpaceOnUse">
<stop stop-color="#8F6AFA"/>
<stop offset="0.447917" stop-color="#375CDC"/>
<stop offset="1" stop-color="#0099EE"/>
</linearGradient>
<linearGradient id="paint27_linear" x1="146.565" y1="1990.71" x2="1596.68" y2="-322.2" gradientUnits="userSpaceOnUse">
<stop stop-color="#8F6AFA"/>
<stop offset="0.447917" stop-color="#375CDC"/>
<stop offset="1" stop-color="#0099EE"/>
</linearGradient>
<linearGradient id="paint28_linear" x1="197.213" y1="2022.6" x2="1647.33" y2="-290.318" gradientUnits="userSpaceOnUse">
<stop stop-color="#8F6AFA"/>
<stop offset="0.447917" stop-color="#375CDC"/>
<stop offset="1" stop-color="#0099EE"/>
</linearGradient>
<linearGradient id="paint29_linear" x1="342.676" y1="2010.3" x2="1794.84" y2="-303.185" gradientUnits="userSpaceOnUse">
<stop stop-color="#8F6AFA"/>
<stop offset="0.447917" stop-color="#375CDC"/>
<stop offset="1" stop-color="#0099EE"/>
</linearGradient>
<linearGradient id="paint30_linear" x1="393.325" y1="2042.17" x2="1843.44" y2="-270.745" gradientUnits="userSpaceOnUse">
<stop stop-color="#8F6AFA"/>
<stop offset="0.447917" stop-color="#375CDC"/>
<stop offset="1" stop-color="#0099EE"/>
</linearGradient>
<linearGradient id="paint31_linear" x1="443.973" y1="2074.05" x2="1894.09" y2="-238.862" gradientUnits="userSpaceOnUse">
<stop stop-color="#8F6AFA"/>
<stop offset="0.447917" stop-color="#375CDC"/>
<stop offset="1" stop-color="#0099EE"/>
</linearGradient>
<linearGradient id="paint32_linear" x1="494.622" y1="2105.93" x2="1944.74" y2="-206.98" gradientUnits="userSpaceOnUse">
<stop stop-color="#8F6AFA"/>
<stop offset="0.447917" stop-color="#375CDC"/>
<stop offset="1" stop-color="#0099EE"/>
</linearGradient>
<linearGradient id="paint33_linear" x1="546.677" y1="2138.7" x2="1996.8" y2="-174.211" gradientUnits="userSpaceOnUse">
<stop stop-color="#8F6AFA"/>
<stop offset="0.447917" stop-color="#375CDC"/>
<stop offset="1" stop-color="#0099EE"/>
</linearGradient>
<linearGradient id="paint34_linear" x1="597.325" y1="2170.59" x2="2047.44" y2="-142.329" gradientUnits="userSpaceOnUse">
<stop stop-color="#8F6AFA"/>
<stop offset="0.447917" stop-color="#375CDC"/>
<stop offset="1" stop-color="#0099EE"/>
</linearGradient>
<linearGradient id="paint35_linear" x1="647.973" y1="2202.47" x2="2098.09" y2="-110.447" gradientUnits="userSpaceOnUse">
<stop stop-color="#8F6AFA"/>
<stop offset="0.447917" stop-color="#375CDC"/>
<stop offset="1" stop-color="#0099EE"/>
</linearGradient>
<clipPath id="clip0">
<rect width="2826" height="1871" fill="white"/>
</clipPath>
</defs>
</svg>
